<svg id="svg" version="1.1" xmlns="http://www.w3.org/2000/svg" xmlns:xlink="http://www.w3.org/1999/xlink" width="400" height="400" viewBox="0, 0, 400,400"><g id="svgg"><path id="path0" d="M207.824 26.417 C 207.803 27.194,208.739 27.660,209.570 27.287 C 210.289 26.965,210.281 26.950,209.472 27.104 C 208.928 27.207,208.448 27.024,208.214 26.624 C 208.006 26.268,207.831 26.175,207.824 26.417 M192.348 30.759 C 192.474 30.885,193.036 31.037,193.597 31.097 C 194.158 31.157,194.516 31.104,194.392 30.980 C 194.268 30.856,193.705 30.704,193.142 30.642 C 192.579 30.581,192.222 30.633,192.348 30.759 M195.879 31.417 C 194.579 31.918,191.359 33.406,188.722 34.725 C 186.086 36.043,183.739 37.004,183.506 36.860 C 183.268 36.713,183.194 36.778,183.336 37.008 C 183.663 37.537,182.874 37.833,181.527 37.685 C 180.943 37.621,180.559 37.721,180.675 37.908 C 180.790 38.094,181.142 38.148,181.458 38.027 C 181.773 37.906,182.031 37.902,182.031 38.017 C 182.031 38.358,174.460 42.388,173.930 42.329 C 173.664 42.300,173.532 42.415,173.638 42.586 C 173.914 43.033,166.057 47.337,165.543 47.020 C 165.303 46.871,165.223 46.932,165.363 47.157 C 165.688 47.683,154.434 54.428,153.842 54.062 C 153.546 53.879,153.503 53.960,153.715 54.303 C 153.949 54.682,153.855 54.751,153.364 54.563 C 152.995 54.422,152.787 54.457,152.901 54.642 C 153.123 55.001,135.685 65.738,134.863 65.749 C 134.595 65.752,134.375 65.889,134.375 66.052 C 134.375 66.596,129.704 69.197,129.241 68.911 C 128.966 68.741,128.890 68.799,129.051 69.058 C 129.207 69.311,128.548 69.928,127.451 70.559 C 126.425 71.149,125.167 71.950,124.654 72.339 C 123.579 73.156,122.873 73.269,123.282 72.559 C 123.445 72.275,123.414 72.207,123.207 72.396 C 123.012 72.575,122.852 72.872,122.852 73.055 C 122.852 73.615,117.949 76.596,117.493 76.314 C 117.256 76.168,117.177 76.230,117.316 76.454 C 117.453 76.677,116.108 77.749,114.297 78.860 C 112.500 79.962,110.805 81.134,110.531 81.465 C 110.256 81.796,109.798 81.977,109.512 81.868 C 109.227 81.758,109.036 81.882,109.087 82.143 C 109.138 82.404,108.947 82.569,108.662 82.510 C 108.378 82.451,108.235 82.549,108.346 82.727 C 108.552 83.061,105.641 86.094,105.030 86.182 C 104.841 86.208,104.468 86.255,104.199 86.285 C 103.810 86.329,103.810 86.403,104.201 86.651 C 104.572 86.887,104.395 87.511,103.477 89.206 C 102.086 91.773,101.183 94.833,101.177 96.998 C 101.174 97.818,100.979 98.850,100.742 99.292 C 100.430 99.875,100.430 100.022,100.742 99.829 C 101.000 99.670,101.172 99.876,101.172 100.345 C 101.172 100.774,100.993 101.236,100.775 101.371 C 100.557 101.506,100.490 101.797,100.626 102.019 C 100.763 102.240,100.930 103.854,100.996 105.605 C 101.063 107.356,101.028 108.569,100.917 108.301 C 100.807 108.032,100.533 107.813,100.310 107.813 C 100.082 107.813,100.139 108.095,100.440 108.458 C 101.068 109.214,101.208 111.328,100.631 111.328 C 100.403 111.328,100.434 111.528,100.703 111.797 C 101.443 112.536,101.311 114.200,100.537 113.902 C 99.956 113.680,99.954 113.739,100.510 114.588 C 101.003 115.339,101.125 116.903,101.153 122.786 L 101.187 130.054 99.640 130.844 C 98.789 131.278,97.862 131.576,97.581 131.506 C 97.300 131.436,97.236 131.463,97.438 131.567 C 97.906 131.807,91.940 134.773,91.298 134.618 C 91.035 134.555,90.960 134.579,91.130 134.673 C 91.706 134.987,79.364 141.015,78.630 140.777 C 78.162 140.626,78.088 140.666,78.407 140.897 C 78.732 141.133,77.818 141.772,75.529 142.907 C 73.684 143.822,72.245 144.640,72.330 144.726 C 72.475 144.871,80.560 143.807,100.977 140.956 C 105.703 140.296,110.492 139.732,111.619 139.702 C 112.745 139.673,113.668 139.539,113.670 139.406 C 113.675 138.863,118.470 138.610,118.803 139.134 C 119.057 139.535,119.130 139.513,119.135 139.034 C 119.141 138.332,128.132 136.976,130.273 137.354 C 131.040 137.490,131.271 137.438,130.941 137.205 C 130.298 136.750,147.678 134.174,150.977 134.236 C 152.315 134.261,152.992 134.160,152.556 134.001 C 151.994 133.796,152.292 133.653,153.685 133.463 C 156.208 133.117,156.729 133.135,156.466 133.560 C 156.343 133.759,156.764 133.835,157.420 133.732 C 158.065 133.630,158.594 133.720,158.594 133.932 C 158.594 134.751,160.010 134.586,161.035 133.649 C 161.626 133.108,162.109 132.860,162.109 133.097 C 162.109 133.335,161.923 133.591,161.695 133.667 C 161.432 133.754,161.516 134.230,161.925 134.969 L 162.568 136.133 162.323 135.027 C 162.107 134.047,162.169 133.951,162.875 134.175 C 163.337 134.321,163.672 134.253,163.672 134.011 C 163.672 133.781,163.408 133.594,163.086 133.594 C 162.764 133.594,162.500 133.330,162.500 133.008 C 162.500 132.388,161.514 132.195,161.172 132.748 C 161.061 132.928,160.615 133.049,160.181 133.017 C 158.624 132.902,159.045 132.566,161.339 132.092 C 164.243 131.492,164.266 131.640,160.708 128.124 C 152.127 119.646,146.929 106.450,147.844 95.468 C 148.133 91.991,148.571 91.280,149.003 93.584 C 149.692 97.258,153.625 103.955,157.014 107.227 L 158.633 108.789 157.024 105.307 C 149.711 89.474,152.702 68.950,164.148 56.426 C 167.393 52.875,168.445 52.661,167.415 55.761 C 163.514 67.507,164.651 80.880,170.169 88.156 C 171.594 90.037,175.391 93.705,175.391 93.203 C 175.391 93.081,174.941 91.440,174.392 89.557 C 170.005 74.510,177.609 54.730,195.508 34.627 C 199.727 29.887,199.722 29.937,195.879 31.417 M207.155 31.738 C 207.270 32.007,208.536 34.951,209.969 38.281 C 214.633 49.116,218.750 62.842,218.750 67.556 C 218.750 69.669,219.438 69.615,221.438 67.343 C 225.091 63.193,226.412 54.117,224.367 47.230 C 223.644 44.793,223.747 44.665,225.646 45.636 C 241.813 53.908,246.854 83.409,235.363 102.493 C 233.762 105.151,233.996 105.208,237.058 102.906 C 239.970 100.717,242.933 96.442,244.129 92.705 C 244.599 91.239,245.062 89.793,245.158 89.492 C 245.454 88.567,247.070 90.430,248.284 93.097 C 252.898 103.230,245.812 120.464,233.831 128.250 C 232.232 129.289,232.057 129.513,232.758 129.617 C 233.397 129.712,234.838 131.250,234.289 131.250 C 234.226 131.250,233.601 131.086,232.900 130.884 C 232.109 130.658,231.711 130.658,231.851 130.884 C 231.976 131.086,232.321 131.250,232.618 131.250 C 232.965 131.250,233.102 131.565,233.000 132.129 C 232.845 132.994,232.852 132.995,233.430 132.227 C 233.753 131.797,234.098 131.489,234.197 131.543 C 234.295 131.597,234.419 131.626,234.473 131.608 C 235.047 131.417,236.328 131.439,236.328 131.641 C 236.328 131.784,236.592 131.901,236.914 131.901 C 237.955 131.901,237.536 131.320,236.300 131.049 C 235.640 130.904,235.182 130.703,235.283 130.603 C 235.383 130.502,236.806 130.697,238.445 131.036 C 242.933 131.963,259.963 134.766,261.107 134.766 C 261.738 134.766,262.109 134.983,262.109 135.352 C 262.109 135.707,262.455 135.927,262.988 135.910 C 263.827 135.884,263.831 135.867,263.086 135.547 C 261.921 135.046,262.652 135.087,267.383 135.789 C 270.197 136.206,271.848 136.637,272.168 137.038 C 272.464 137.408,272.656 137.466,272.656 137.184 C 272.656 136.606,274.469 136.566,274.821 137.136 C 274.963 137.365,275.330 137.457,275.638 137.339 C 276.468 137.020,291.369 139.151,291.284 139.577 C 291.244 139.777,291.455 140.030,291.754 140.139 C 292.110 140.268,292.193 140.169,291.996 139.850 C 291.762 139.472,292.246 139.428,294.188 139.651 C 295.558 139.809,296.792 140.115,296.929 140.331 C 297.066 140.548,297.369 140.607,297.602 140.463 C 297.836 140.319,300.932 140.593,304.483 141.073 C 308.034 141.552,310.740 142.068,310.495 142.219 C 310.251 142.370,310.869 142.402,311.869 142.289 C 313.376 142.119,313.649 142.184,313.462 142.670 C 313.316 143.050,313.528 143.333,314.063 143.473 C 314.779 143.660,314.820 143.606,314.378 143.069 C 313.920 142.513,314.063 142.476,315.777 142.709 C 316.828 142.852,318.025 142.969,318.437 142.969 C 318.886 142.969,319.079 143.142,318.919 143.401 C 318.743 143.687,318.912 143.751,319.415 143.592 C 319.834 143.458,322.247 143.703,324.776 144.136 C 330.782 145.162,331.130 145.116,328.235 143.674 C 326.898 143.009,325.915 142.287,326.049 142.070 C 326.183 141.854,326.103 141.793,325.871 141.937 C 325.342 142.264,321.641 140.314,321.787 139.785 C 321.846 139.571,321.727 139.498,321.523 139.624 C 321.043 139.921,319.106 139.044,319.355 138.642 C 319.459 138.473,319.338 138.208,319.087 138.053 C 318.801 137.876,318.734 137.939,318.908 138.221 C 319.298 138.851,319.020 138.793,317.022 137.822 C 316.060 137.355,315.379 136.800,315.509 136.590 C 315.639 136.380,315.553 136.326,315.318 136.472 C 314.751 136.822,308.964 133.943,309.263 133.459 C 309.391 133.252,309.296 133.206,309.053 133.356 C 308.319 133.810,307.026 132.893,307.314 132.123 C 307.521 131.570,307.464 131.530,307.002 131.904 C 306.359 132.426,302.574 131.044,302.956 130.426 C 303.071 130.240,302.893 130.192,302.559 130.320 C 301.963 130.549,301.836 125.180,301.764 96.814 C 301.761 95.383,301.626 94.295,301.465 94.395 C 301.304 94.495,301.172 94.299,301.172 93.960 C 301.172 92.947,298.943 88.343,297.680 86.749 C 297.034 85.933,296.588 85.153,296.690 85.016 C 296.792 84.878,296.763 84.849,296.625 84.950 C 296.488 85.052,295.426 84.267,294.265 83.207 C 293.105 82.146,290.625 80.275,288.754 79.049 C 284.883 76.512,284.226 76.002,285.352 76.406 C 286.187 76.707,286.158 76.656,284.984 75.768 C 284.509 75.410,284.335 75.378,284.518 75.684 C 285.053 76.573,284.306 76.201,278.945 72.913 C 276.023 71.120,272.541 68.990,271.207 68.179 C 269.872 67.368,268.818 66.506,268.863 66.263 C 268.908 66.019,268.594 65.818,268.164 65.814 C 266.988 65.805,264.775 64.490,265.087 63.986 C 265.241 63.735,265.179 63.660,264.939 63.808 C 264.435 64.120,263.215 63.705,263.462 63.305 C 263.558 63.149,263.414 63.021,263.141 63.021 C 262.255 63.021,253.548 57.685,253.791 57.292 C 253.922 57.081,253.826 57.035,253.577 57.189 C 253.007 57.541,248.796 55.055,249.108 54.550 C 249.236 54.344,249.134 54.303,248.883 54.459 C 248.401 54.756,241.626 50.822,241.991 50.457 C 242.106 50.342,242.409 50.455,242.663 50.710 C 242.917 50.964,243.305 51.172,243.524 51.172 C 243.744 51.172,243.533 50.898,243.055 50.563 C 242.577 50.229,242.027 50.053,241.831 50.174 C 241.288 50.510,240.206 49.972,240.492 49.508 C 240.638 49.272,240.559 49.214,240.306 49.370 C 239.726 49.728,237.824 48.470,238.150 47.944 C 238.297 47.705,238.213 47.652,237.946 47.817 C 237.444 48.128,233.203 45.863,233.203 45.284 C 233.203 45.085,233.054 44.966,232.872 45.020 C 232.270 45.197,227.762 42.458,228.007 42.063 C 228.138 41.850,228.051 41.797,227.813 41.944 C 227.132 42.365,220.146 38.247,220.775 37.795 C 221.144 37.531,221.081 37.494,220.555 37.666 C 219.674 37.953,214.762 35.214,215.119 34.636 C 215.249 34.426,215.167 34.371,214.937 34.513 C 214.706 34.655,212.947 33.979,211.027 33.011 C 207.292 31.127,206.831 30.976,207.155 31.738 M158.984 50.586 C 158.366 51.331,158.946 51.324,159.938 50.574 C 160.545 50.114,160.574 50.000,160.083 50.000 C 159.746 50.000,159.252 50.264,158.984 50.586 M191.498 57.356 C 190.868 61.029,189.122 66.395,186.504 72.703 C 181.736 84.190,182.425 92.381,188.716 99.034 C 191.109 101.564,191.334 101.527,190.383 98.756 C 188.708 93.871,189.477 88.338,193.014 79.818 C 197.615 68.737,197.689 61.205,193.245 56.064 L 191.972 54.592 191.498 57.356 M234.008 115.058 C 232.641 117.480,227.777 122.760,225.387 124.416 C 223.484 125.735,223.474 125.858,225.209 126.685 C 229.668 128.812,235.052 123.168,235.472 115.926 C 235.681 112.309,235.590 112.255,234.008 115.058 M230.469 132.066 C 230.469 132.262,230.601 132.435,230.762 132.452 C 230.923 132.468,231.362 132.541,231.738 132.613 C 232.114 132.684,232.422 132.583,232.422 132.387 C 232.422 132.191,232.290 132.018,232.129 132.001 C 231.968 131.985,231.528 131.913,231.152 131.841 C 230.776 131.769,230.469 131.870,230.469 132.066 M244.386 133.121 C 244.281 133.291,244.798 133.360,245.535 133.274 C 246.272 133.188,246.875 133.049,246.875 132.965 C 246.875 132.671,244.575 132.816,244.386 133.121 M256.934 137.385 C 257.417 137.478,258.208 137.478,258.691 137.385 C 259.175 137.292,258.779 137.216,257.813 137.216 C 256.846 137.216,256.450 137.292,256.934 137.385 " stroke="none" fill="#f72727" fill-rule="evenodd"></path><path id="path1" d="M200.780 22.461 C 200.730 22.676,200.717 23.005,200.751 23.192 C 200.785 23.380,200.542 23.429,200.211 23.302 C 199.795 23.143,199.609 23.308,199.609 23.840 C 199.609 24.263,199.434 24.609,199.219 24.609 C 199.004 24.609,198.828 24.335,198.828 24.000 C 198.828 23.665,198.649 23.502,198.431 23.637 C 198.213 23.772,198.121 24.022,198.227 24.194 C 198.332 24.365,198.042 24.836,197.581 25.241 C 196.822 25.906,196.766 25.911,196.992 25.293 C 197.129 24.917,197.065 24.609,196.850 24.609 C 196.636 24.609,196.357 24.878,196.231 25.205 C 196.052 25.672,195.882 25.701,195.450 25.342 C 194.983 24.955,194.958 25.045,195.290 25.918 C 195.606 26.748,195.569 26.953,195.108 26.953 C 194.791 26.953,194.531 26.767,194.531 26.539 C 194.531 26.312,194.355 26.234,194.141 26.367 C 193.480 26.776,193.706 27.281,194.629 27.459 L 195.508 27.628 194.606 27.681 C 194.110 27.710,193.813 27.910,193.945 28.125 C 194.078 28.340,193.835 28.516,193.405 28.516 C 192.976 28.516,192.517 28.689,192.386 28.902 C 192.249 29.123,192.406 29.189,192.753 29.055 C 193.087 28.927,193.359 29.017,193.359 29.255 C 193.359 29.493,193.096 29.688,192.773 29.688 C 192.080 29.688,191.998 30.305,192.638 30.701 C 192.918 30.874,192.983 30.809,192.811 30.529 C 192.433 29.917,193.004 29.981,193.886 30.650 C 194.282 30.950,194.883 31.091,195.219 30.961 C 195.616 30.809,195.734 30.883,195.556 31.172 C 195.377 31.461,195.854 31.415,196.920 31.039 C 199.330 30.188,199.231 30.444,195.547 34.582 C 177.606 54.733,170.001 74.496,174.392 89.557 C 174.941 91.440,175.391 93.081,175.391 93.203 C 175.391 93.705,171.594 90.037,170.169 88.156 C 164.651 80.880,163.514 67.507,167.415 55.761 C 168.445 52.661,167.393 52.875,164.148 56.426 C 152.702 68.950,149.711 89.474,157.024 105.307 L 158.633 108.789 157.014 107.227 C 153.625 103.955,149.692 97.258,149.003 93.584 C 148.571 91.280,148.133 91.991,147.844 95.468 C 146.929 106.450,152.127 119.646,160.708 128.124 C 163.755 131.136,164.097 131.641,163.086 131.641 C 162.721 131.641,162.500 132.010,162.500 132.617 C 162.500 133.191,162.724 133.594,163.044 133.594 C 163.343 133.594,163.706 134.068,163.852 134.648 C 164.058 135.469,164.193 135.577,164.466 135.136 C 164.804 134.589,168.750 134.245,168.750 134.763 C 168.750 134.887,169.102 134.989,169.531 134.989 C 169.961 134.989,170.312 134.807,170.312 134.584 C 170.311 134.330,171.399 134.227,173.245 134.308 C 175.062 134.388,176.088 134.585,175.940 134.825 C 175.808 135.039,176.069 134.983,176.522 134.700 C 177.183 134.287,177.496 134.282,178.125 134.675 C 178.555 134.943,178.906 135.023,178.906 134.852 C 178.906 134.681,179.300 134.512,179.780 134.475 C 180.448 134.425,180.520 134.493,180.085 134.762 C 179.771 134.955,179.621 135.220,179.750 135.349 C 179.879 135.478,180.301 135.268,180.687 134.882 C 181.418 134.151,181.479 134.158,182.395 135.074 C 182.881 135.560,183.016 135.550,183.415 135.004 C 184.026 134.169,187.584 134.093,187.266 134.921 C 187.150 135.222,187.244 135.584,187.473 135.726 C 187.845 135.955,188.060 135.472,187.941 134.679 C 187.917 134.524,188.318 134.557,188.831 134.752 C 189.344 134.947,189.893 134.986,190.052 134.838 C 190.210 134.691,190.134 134.966,189.883 135.449 C 189.631 135.933,189.564 136.340,189.732 136.356 C 189.901 136.371,189.688 136.534,189.258 136.719 C 188.542 137.026,188.559 137.056,189.453 137.076 C 189.990 137.088,190.693 136.908,191.016 136.676 C 191.513 136.318,191.500 136.287,190.930 136.470 C 190.561 136.588,190.156 136.517,190.029 136.311 C 189.902 136.106,189.984 135.938,190.211 135.938 C 190.439 135.938,190.625 135.595,190.625 135.176 C 190.625 134.462,190.910 134.418,195.243 134.461 C 197.782 134.487,200.052 134.389,200.286 134.245 C 200.981 133.815,202.023 134.409,201.763 135.087 C 201.557 135.625,201.613 135.622,202.229 135.065 C 203.136 134.245,207.863 133.941,208.112 134.687 C 208.243 135.081,208.401 135.087,208.846 134.718 C 209.468 134.202,213.372 133.913,213.067 134.406 C 212.963 134.574,213.061 134.825,213.285 134.963 C 213.508 135.101,213.643 134.992,213.584 134.720 C 213.525 134.448,213.810 134.154,214.217 134.066 C 214.795 133.940,214.902 134.064,214.704 134.628 C 214.467 135.306,214.485 135.309,214.979 134.674 C 215.269 134.301,215.621 134.111,215.761 134.251 C 215.901 134.391,216.016 134.300,216.016 134.049 C 216.016 133.799,216.290 133.594,216.625 133.594 C 216.960 133.594,217.148 133.733,217.042 133.903 C 216.937 134.074,217.194 134.239,217.614 134.270 C 218.107 134.307,218.278 134.164,218.098 133.863 C 217.944 133.608,218.150 133.662,218.555 133.984 C 218.959 134.307,219.166 134.363,219.014 134.109 C 218.862 133.855,218.916 133.537,219.134 133.402 C 219.353 133.267,219.531 133.328,219.531 133.536 C 219.531 133.745,219.839 133.856,220.215 133.784 C 220.591 133.712,221.041 133.640,221.214 133.624 C 221.388 133.607,221.431 133.433,221.310 133.237 C 221.056 132.826,221.842 132.887,222.559 133.335 C 222.879 133.535,223.057 133.397,223.078 132.933 C 223.097 132.496,223.186 132.419,223.311 132.731 C 223.476 133.144,223.627 133.144,224.135 132.731 C 224.656 132.307,224.720 132.323,224.530 132.830 C 224.380 133.233,224.550 133.452,225.043 133.490 C 225.449 133.520,225.781 133.380,225.781 133.179 C 225.781 132.977,225.967 132.813,226.195 132.813 C 226.422 132.813,226.489 133.006,226.343 133.242 C 226.167 133.526,226.374 133.513,226.953 133.203 C 227.533 132.893,227.739 132.880,227.563 133.164 C 227.413 133.406,227.563 133.594,227.907 133.594 C 228.255 133.594,228.516 133.260,228.516 132.813 C 228.516 131.962,229.088 131.768,229.523 132.472 C 229.709 132.773,229.910 132.708,230.156 132.269 C 230.355 131.914,230.685 131.728,230.890 131.855 C 231.095 131.981,231.145 132.276,231.001 132.509 C 230.843 132.764,230.921 132.821,231.196 132.651 C 231.448 132.495,231.543 132.190,231.409 131.972 C 231.274 131.754,231.731 131.869,232.424 132.228 C 233.624 132.848,235.077 132.511,234.018 131.857 C 233.785 131.713,233.594 131.791,233.594 132.031 C 233.594 132.271,233.415 132.358,233.197 132.223 C 232.978 132.088,232.901 131.814,233.024 131.614 C 233.148 131.414,232.986 131.250,232.663 131.250 C 232.341 131.250,231.976 131.086,231.851 130.884 C 231.712 130.658,232.102 130.656,232.877 130.878 C 233.565 131.075,234.169 131.195,234.220 131.145 C 234.468 130.897,233.289 129.761,232.654 129.635 C 232.100 129.526,232.379 129.199,233.835 128.250 C 245.822 120.443,252.898 103.228,248.284 93.097 C 247.070 90.430,245.454 88.567,245.158 89.492 C 245.062 89.793,244.599 91.239,244.129 92.705 C 242.933 96.442,239.970 100.717,237.058 102.906 C 233.996 105.208,233.762 105.151,235.363 102.493 C 246.854 83.409,241.813 53.908,225.646 45.636 C 223.747 44.665,223.644 44.793,224.367 47.230 C 226.412 54.117,225.091 63.193,221.438 67.343 C 219.438 69.615,218.750 69.669,218.750 67.556 C 218.750 62.842,214.633 49.116,209.969 38.281 C 208.536 34.951,207.275 32.020,207.167 31.769 C 206.937 31.232,209.250 31.263,210.119 31.808 C 210.515 32.056,210.581 32.012,210.358 31.650 C 210.150 31.314,210.226 31.214,210.590 31.346 C 210.889 31.454,211.089 31.741,211.035 31.982 C 210.981 32.224,211.311 32.422,211.767 32.422 C 212.500 32.422,212.534 32.501,212.060 33.105 C 211.564 33.737,211.580 33.745,212.267 33.203 C 212.676 32.881,213.086 32.676,213.179 32.747 C 213.271 32.819,213.464 32.747,213.607 32.587 C 213.750 32.427,213.636 32.430,213.353 32.594 C 213.012 32.791,212.766 32.614,212.623 32.071 C 212.505 31.619,212.243 31.250,212.041 31.250 C 211.838 31.250,211.805 31.470,211.966 31.738 C 212.197 32.123,212.136 32.127,211.675 31.754 C 211.307 31.457,211.116 30.703,211.158 29.720 C 211.223 28.222,210.747 27.782,210.065 28.711 C 209.903 28.932,209.775 28.804,209.772 28.418 C 209.768 28.042,209.523 27.734,209.228 27.734 C 208.086 27.734,207.649 26.611,208.442 25.717 C 209.170 24.898,209.169 24.892,208.377 25.307 C 207.905 25.554,207.350 25.588,207.029 25.389 C 206.728 25.203,206.361 25.127,206.213 25.218 C 206.064 25.310,205.822 24.903,205.674 24.314 C 205.410 23.264,205.393 23.259,204.798 24.024 C 204.328 24.630,204.243 24.654,204.423 24.134 C 204.688 23.361,204.074 22.792,203.775 23.533 C 203.618 23.923,203.571 23.923,203.546 23.535 C 203.530 23.267,203.154 23.047,202.711 23.047 C 202.196 23.047,201.996 22.871,202.154 22.559 C 202.290 22.290,202.140 22.391,201.821 22.782 C 201.259 23.470,201.234 23.470,201.056 22.782 C 200.955 22.391,200.831 22.246,200.780 22.461 M208.415 26.536 C 208.037 27.148,208.757 27.297,209.293 26.717 C 209.706 26.269,209.693 26.172,209.218 26.172 C 208.900 26.172,208.539 26.336,208.415 26.536 M191.895 31.142 C 191.043 31.248,190.615 31.516,190.595 31.958 C 190.579 32.321,190.508 32.913,190.438 33.274 C 190.358 33.689,190.502 33.857,190.830 33.731 C 191.116 33.622,191.285 33.198,191.207 32.790 C 191.128 32.382,191.256 31.929,191.491 31.784 C 191.730 31.636,191.807 31.699,191.666 31.926 C 191.528 32.150,191.765 32.425,192.192 32.536 C 192.686 32.665,192.875 32.586,192.710 32.319 C 192.544 32.050,192.692 31.991,193.120 32.156 C 193.554 32.322,193.697 32.262,193.526 31.985 C 193.347 31.694,193.560 31.646,194.189 31.834 C 195.096 32.106,195.099 32.098,194.336 31.498 C 193.906 31.160,193.467 30.907,193.359 30.934 C 193.252 30.962,192.593 31.055,191.895 31.142 M195.367 59.725 C 197.474 65.156,196.834 70.618,193.014 79.818 C 189.477 88.338,188.708 93.871,190.383 98.756 C 191.334 101.527,191.109 101.564,188.716 99.034 C 182.425 92.381,181.736 84.190,186.504 72.703 C 189.122 66.395,190.868 61.029,191.498 57.356 L 191.972 54.592 193.245 56.064 C 193.945 56.874,194.900 58.522,195.367 59.725 M235.472 115.926 C 235.052 123.168,229.668 128.812,225.209 126.685 C 223.474 125.858,223.484 125.735,225.387 124.416 C 227.777 122.760,232.641 117.480,234.008 115.058 C 235.590 112.255,235.681 112.309,235.472 115.926 M161.135 133.591 C 160.745 134.022,160.553 134.375,160.710 134.375 C 161.121 134.375,162.235 133.198,162.023 132.987 C 161.925 132.888,161.525 133.160,161.135 133.591 M202.148 137.408 C 201.569 137.834,201.534 138.542,202.092 138.542 C 202.359 138.542,202.602 138.219,202.632 137.826 C 202.693 137.018,202.686 137.013,202.148 137.408 " stroke="none" fill="#fbfbfb" fill-rule="evenodd"></path><path id="path2" d="M145.688 137.988 C 143.436 139.124,141.958 141.816,142.372 144.027 C 142.689 145.712,145.186 148.438,146.415 148.438 C 146.858 148.438,147.312 148.588,147.426 148.772 C 147.877 149.501,153.125 148.096,153.125 147.246 C 153.125 146.414,151.995 145.572,151.466 146.011 C 150.586 146.742,147.851 146.702,146.690 145.941 C 142.465 143.173,146.644 137.763,151.350 139.907 C 152.470 140.418,152.530 140.389,152.910 139.152 C 153.502 137.227,148.725 136.457,145.688 137.988 M186.914 137.651 C 184.719 138.608,183.805 141.855,185.338 143.250 C 185.522 143.418,185.528 143.306,185.350 143.000 C 185.099 142.568,185.193 142.514,185.776 142.756 C 186.187 142.928,187.449 143.364,188.580 143.727 C 190.948 144.486,191.606 145.010,191.275 145.872 C 190.965 146.679,187.494 146.703,185.958 145.909 C 184.831 145.326,183.710 146.823,184.646 147.659 C 186.732 149.521,192.096 148.961,193.559 146.728 C 194.990 144.543,193.699 142.830,189.844 141.800 C 187.034 141.049,186.329 140.121,188.067 139.461 C 188.709 139.216,189.682 139.267,191.027 139.616 C 194.092 140.411,194.822 138.551,191.836 137.553 C 190.116 136.978,188.379 137.012,186.914 137.651 M225.931 137.857 C 222.123 139.586,221.304 144.750,224.446 147.221 C 224.951 147.618,225.291 148.017,225.201 148.107 C 225.111 148.197,225.336 148.287,225.702 148.308 C 226.068 148.329,227.205 148.520,228.230 148.733 C 229.282 148.952,230.185 148.972,230.304 148.779 C 230.420 148.591,230.850 148.438,231.259 148.438 C 231.669 148.438,232.615 147.901,233.361 147.246 C 238.779 142.489,232.686 134.789,225.931 137.857 M163.281 141.250 C 163.281 147.118,165.121 149.313,169.543 148.720 C 173.098 148.243,174.219 146.399,174.219 141.028 L 174.219 137.500 173.047 137.500 L 171.875 137.500 171.875 140.963 C 171.875 145.224,171.172 146.484,168.796 146.484 C 166.193 146.484,165.838 145.909,165.686 141.438 L 165.552 137.500 164.417 137.500 L 163.281 137.500 163.281 141.250 M202.734 138.477 C 202.734 139.388,202.865 139.453,204.681 139.453 L 206.627 139.453 206.536 143.945 L 206.445 148.438 207.520 148.438 C 208.110 148.438,208.726 148.426,208.887 148.413 C 209.048 148.399,209.138 148.048,209.087 147.632 C 209.035 147.216,209.139 146.875,209.317 146.875 C 209.495 146.875,209.573 145.205,209.490 143.164 L 209.340 139.453 211.311 139.453 C 213.152 139.453,213.281 139.389,213.281 138.477 L 213.281 137.500 208.008 137.500 L 202.734 137.500 202.734 138.477 M246.716 141.309 C 246.577 143.403,246.362 145.965,246.238 147.000 L 246.013 148.884 247.323 148.758 L 248.633 148.633 248.828 144.922 L 249.023 141.211 250.581 144.238 C 252.714 148.386,253.495 148.321,255.638 143.815 C 257.120 140.701,257.211 140.756,257.309 144.825 C 257.355 146.704,257.399 148.385,257.407 148.560 C 257.415 148.735,257.993 148.823,258.691 148.755 C 259.390 148.688,259.936 148.457,259.905 148.242 C 259.874 148.027,259.725 145.522,259.572 142.676 L 259.295 137.500 257.860 137.500 C 256.445 137.500,256.399 137.551,254.719 140.918 L 253.014 144.336 251.409 140.937 C 249.832 137.595,249.781 137.537,248.386 137.519 L 246.968 137.500 246.716 141.309 M230.164 139.470 C 231.934 139.962,232.815 141.126,232.804 142.958 C 232.797 144.099,231.286 147.022,231.259 145.948 C 231.254 145.761,230.991 145.822,230.675 146.084 C 229.488 147.070,227.333 146.739,226.123 145.385 C 224.348 143.399,224.714 141.264,227.076 139.824 C 228.534 138.935,228.324 138.959,230.164 139.470 M72.566 183.594 C 72.640 203.786,72.548 212.109,72.250 212.109 C 72.018 212.109,71.938 212.285,72.070 212.500 C 72.217 212.737,75.069 212.891,79.320 212.891 L 86.328 212.891 86.328 200.589 L 86.328 188.288 98.242 188.315 L 110.156 188.342 110.156 200.616 L 110.156 212.891 111.914 212.939 C 112.881 212.966,113.936 212.988,114.258 212.988 C 114.580 212.988,116.953 212.966,119.531 212.939 L 124.219 212.891 124.219 184.375 L 124.219 155.859 119.629 155.798 C 117.104 155.764,114.819 155.744,114.551 155.754 C 114.282 155.764,114.063 155.616,114.063 155.425 C 114.063 155.234,113.667 155.090,113.184 155.106 C 112.341 155.132,112.337 155.148,113.086 155.488 C 113.653 155.747,113.333 155.814,111.914 155.733 L 109.961 155.623 110.071 166.061 L 110.181 176.500 98.254 176.507 L 86.328 176.514 86.328 166.187 C 86.328 158.203,86.217 155.852,85.840 155.826 C 85.571 155.808,82.493 155.795,78.999 155.797 C 75.197 155.800,72.735 155.657,72.869 155.440 C 72.992 155.241,72.951 155.078,72.777 155.078 C 72.603 155.078,72.508 167.910,72.566 183.594 M226.178 155.401 C 226.174 155.739,225.729 155.895,224.902 155.850 C 224.204 155.811,222.391 155.798,220.873 155.820 L 218.113 155.859 217.388 157.324 C 216.989 158.130,216.619 158.965,216.565 159.180 C 216.511 159.395,214.150 164.668,211.319 170.898 C 208.488 177.129,205.591 183.545,204.881 185.156 C 204.171 186.768,202.070 191.426,200.213 195.508 C 198.355 199.590,196.185 204.467,195.390 206.347 C 194.373 208.751,193.784 209.704,193.402 209.561 C 192.999 209.410,192.965 209.486,193.272 209.855 C 193.567 210.211,193.531 210.633,193.146 211.329 C 192.849 211.866,192.600 212.437,192.592 212.598 C 192.584 212.759,195.802 212.891,199.742 212.891 L 206.905 212.891 210.129 205.268 L 213.353 197.645 225.238 197.748 L 237.123 197.852 239.071 202.128 C 240.295 204.816,240.936 206.703,240.796 207.206 C 240.647 207.746,240.688 207.844,240.923 207.507 C 241.168 207.155,241.672 207.877,242.609 209.920 L 243.945 212.835 250.391 212.960 C 253.936 213.029,257.833 213.034,259.051 212.970 L 261.266 212.853 253.660 197.604 C 247.107 184.466,246.124 182.265,246.562 181.705 C 247.005 181.139,246.991 181.117,246.455 181.534 C 245.762 182.074,244.267 179.649,244.780 178.819 C 244.925 178.586,244.868 178.503,244.655 178.634 C 244.442 178.766,243.271 176.815,242.052 174.300 C 239.768 169.586,239.522 168.896,240.295 169.373 C 240.576 169.547,240.640 169.480,240.463 169.195 C 240.308 168.943,240.050 168.818,239.891 168.916 C 239.466 169.179,236.655 163.309,236.966 162.807 C 237.111 162.572,237.060 162.484,236.852 162.613 C 236.368 162.912,233.881 157.906,234.232 157.337 C 234.384 157.092,234.316 157.021,234.073 157.172 C 233.840 157.316,233.538 157.079,233.400 156.646 C 233.138 155.819,232.574 155.723,228.754 155.857 C 227.526 155.899,226.725 155.737,226.514 155.403 C 226.241 154.972,226.183 154.972,226.178 155.401 M298.438 155.660 C 293.931 156.432,290.698 157.368,287.603 158.796 C 286.049 159.513,284.676 159.937,284.553 159.738 C 284.252 159.250,282.920 159.276,282.611 159.775 C 282.475 159.995,282.509 160.150,282.686 160.120 C 284.493 159.806,284.350 160.306,282.227 161.721 C 280.938 162.580,279.654 163.197,279.374 163.091 C 279.079 162.980,278.976 163.078,279.128 163.325 C 279.273 163.558,278.427 164.743,277.250 165.957 C 272.125 171.239,269.589 177.327,269.545 184.450 C 269.537 185.672,269.355 186.781,269.141 186.914 C 268.926 187.047,268.753 187.365,268.756 187.621 C 268.760 187.917,268.890 187.884,269.113 187.532 C 269.360 187.141,269.545 187.543,269.741 188.899 C 271.032 197.833,276.843 205.649,285.189 209.678 C 287.417 210.754,289.024 211.768,289.043 212.109 C 289.067 212.565,289.146 212.583,289.394 212.192 C 289.646 211.794,289.953 211.785,290.853 212.147 C 291.479 212.399,292.392 212.658,292.881 212.722 C 293.371 212.787,294.777 213.068,296.006 213.348 C 304.468 215.272,328.484 212.272,327.814 209.375 C 325.625 199.919,325.769 200.114,321.891 201.339 C 312.992 204.150,303.284 204.161,296.409 201.367 C 279.676 194.568,280.711 173.121,298.047 167.430 C 301.264 166.374,308.107 165.418,309.435 165.839 C 309.897 165.986,310.996 166.094,311.876 166.079 C 314.053 166.042,320.627 167.406,322.838 168.353 C 324.169 168.924,324.679 169.000,324.789 168.645 C 324.872 168.380,325.156 167.197,325.421 166.016 C 325.686 164.834,326.367 162.428,326.935 160.670 C 327.504 158.911,327.839 157.553,327.680 157.651 C 327.522 157.749,326.107 157.466,324.536 157.022 C 318.020 155.181,305.154 154.510,298.438 155.660 M138.196 155.774 L 133.619 155.884 134.367 157.337 C 136.495 161.468,140.741 171.007,140.778 171.740 C 140.801 172.203,140.919 172.521,141.039 172.447 C 141.804 171.974,144.011 178.050,143.918 180.373 C 143.864 181.716,143.962 182.727,144.137 182.620 C 144.311 182.512,144.392 181.588,144.317 180.567 L 144.179 178.711 145.729 181.831 C 146.581 183.547,147.189 185.182,147.081 185.464 C 146.973 185.747,147.026 185.890,147.199 185.783 C 147.650 185.505,149.678 189.800,149.359 190.357 C 149.213 190.612,149.247 190.680,149.436 190.508 C 149.861 190.120,151.651 194.073,151.304 194.634 C 151.165 194.859,151.222 194.937,151.430 194.808 C 151.639 194.680,153.460 198.124,155.477 202.463 C 157.494 206.802,159.478 210.923,159.884 211.621 L 160.624 212.891 164.787 212.891 C 167.077 212.891,169.524 213.055,170.225 213.256 C 171.018 213.484,171.414 213.483,171.273 213.255 C 171.072 212.929,172.419 209.425,174.718 204.297 C 175.152 203.330,175.549 202.363,175.601 202.148 C 175.773 201.444,186.586 175.587,187.151 174.532 C 187.376 174.112,187.736 173.925,188.008 174.087 C 188.366 174.302,188.370 174.236,188.026 173.805 C 187.670 173.360,188.307 171.485,191.063 164.874 C 192.982 160.272,194.496 156.338,194.427 156.132 C 194.143 155.281,179.702 155.583,179.450 156.445 C 179.324 156.875,178.022 160.391,176.555 164.258 C 175.088 168.125,173.767 171.772,173.620 172.363 C 173.473 172.954,173.225 173.438,173.070 173.438 C 172.914 173.438,172.784 173.657,172.781 173.926 C 172.778 174.194,172.133 176.120,171.348 178.206 C 170.564 180.291,169.922 182.199,169.922 182.447 C 169.922 182.703,169.646 182.790,169.281 182.650 C 168.802 182.466,168.738 182.530,169.030 182.901 C 169.478 183.472,166.086 193.612,165.623 193.085 C 164.903 192.262,158.952 176.540,159.206 176.129 C 159.371 175.862,159.331 175.762,159.113 175.897 C 158.814 176.082,153.850 164.196,151.194 156.934 C 150.975 156.336,150.493 155.847,150.107 155.831 C 147.092 155.706,142.029 155.682,138.196 155.774 M134.375 159.961 C 134.375 160.283,134.545 160.547,134.753 160.547 C 134.961 160.547,135.023 160.854,134.891 161.230 C 134.699 161.777,134.752 161.820,135.160 161.442 C 135.548 161.084,135.562 160.841,135.221 160.430 C 134.974 160.132,134.888 159.773,135.029 159.632 C 135.171 159.491,135.081 159.375,134.831 159.375 C 134.580 159.375,134.375 159.639,134.375 159.961 M273.066 169.511 C 272.754 169.709,272.360 169.785,272.191 169.680 C 272.022 169.576,271.983 169.750,272.105 170.067 C 272.296 170.565,272.429 170.555,273.077 170.001 C 274.118 169.109,274.112 168.850,273.066 169.511 M225.898 172.461 C 226.601 173.935,226.535 174.050,225.347 173.414 C 224.545 172.985,224.548 173.001,225.674 174.958 C 225.723 175.042,226.009 174.906,226.311 174.656 C 226.764 174.280,227.152 174.870,228.524 178.018 C 229.439 180.118,230.777 183.015,231.497 184.456 L 232.805 187.075 225.777 187.190 C 221.278 187.263,218.747 187.164,218.744 186.914 C 218.741 186.699,218.553 186.787,218.328 187.109 C 218.015 187.556,217.982 187.464,218.188 186.719 C 218.681 184.937,219.551 183.560,220.005 183.840 C 220.301 184.024,220.356 183.879,220.171 183.399 C 219.912 182.724,224.486 171.144,225.025 171.108 C 225.147 171.100,225.539 171.709,225.898 172.461 M228.153 178.783 C 228.137 179.038,228.308 179.726,228.531 180.313 C 228.837 181.118,228.813 181.459,228.433 181.700 C 228.076 181.926,228.065 182.021,228.395 182.025 C 229.204 182.036,229.304 181.387,228.734 179.830 C 228.429 179.000,228.168 178.529,228.153 178.783 M203.672 185.065 C 203.162 185.406,203.097 186.782,203.607 186.467 C 203.800 186.348,203.860 186.152,203.740 186.032 C 203.620 185.912,203.718 185.578,203.957 185.290 C 204.438 184.711,204.330 184.625,203.672 185.065 M146.875 188.074 C 146.875 188.422,147.104 188.559,147.459 188.423 C 147.780 188.300,147.945 188.042,147.826 187.850 C 147.485 187.298,146.875 187.442,146.875 188.074 M271.992 198.730 C 271.994 200.059,272.413 200.415,272.798 199.414 C 272.921 199.092,272.865 198.828,272.673 198.828 C 272.480 198.828,272.248 198.521,272.156 198.145 C 272.064 197.769,271.990 198.032,271.992 198.730 M109.466 200.391 C 109.466 201.143,109.546 201.450,109.644 201.074 C 109.743 200.698,109.743 200.083,109.644 199.707 C 109.546 199.331,109.466 199.639,109.466 200.391 M161.413 218.697 C 161.356 219.056,160.946 219.173,160.156 219.057 L 158.984 218.885 158.984 224.482 L 158.984 230.078 163.281 230.078 L 167.578 230.078 167.578 229.102 C 167.578 228.147,167.512 228.125,164.660 228.125 L 161.742 228.125 161.620 223.145 C 161.553 220.405,161.460 218.404,161.413 218.697 M251.835 218.608 C 251.685 218.758,251.563 221.400,251.563 224.479 L 251.563 230.078 252.930 230.078 L 254.297 230.078 254.297 226.380 L 254.297 222.682 257.548 226.283 C 260.374 229.412,260.985 229.899,262.215 230.003 L 263.630 230.123 263.749 224.597 C 263.862 219.296,263.520 217.416,262.686 218.765 C 262.535 219.009,262.080 219.122,261.675 219.016 C 260.920 218.819,260.777 219.189,260.919 220.975 C 260.957 221.446,260.800 222.183,260.571 222.611 C 260.295 223.127,260.286 223.472,260.546 223.632 C 260.761 223.765,260.938 224.413,260.938 225.071 C 260.938 226.090,260.851 226.196,260.352 225.781 C 260.029 225.514,259.766 225.180,259.766 225.039 C 259.766 224.571,254.392 219.005,253.852 218.915 C 253.560 218.866,253.047 218.715,252.714 218.580 C 252.380 218.445,251.985 218.458,251.835 218.608 M118.488 219.295 C 114.799 220.973,115.883 223.955,120.704 225.391 C 123.144 226.118,123.471 226.324,123.364 227.074 C 123.206 228.185,120.649 228.439,118.532 227.555 C 116.859 226.856,116.940 226.831,116.613 228.137 C 116.293 229.410,117.936 230.078,121.384 230.078 C 126.511 230.078,128.170 225.254,123.534 223.828 C 122.729 223.581,121.807 223.279,121.484 223.158 C 121.162 223.037,120.591 222.904,120.215 222.863 C 119.285 222.760,119.001 222.412,119.271 221.708 C 119.638 220.752,121.481 220.513,123.338 221.181 C 124.945 221.758,125.039 221.751,125.439 221.003 C 126.390 219.227,121.357 217.990,118.488 219.295 M138.408 219.229 C 137.501 219.520,136.922 220.115,136.259 221.435 C 135.760 222.429,135.242 223.330,135.109 223.438 C 134.711 223.758,135.763 227.285,136.499 228.098 C 139.274 231.164,145.563 230.686,147.658 227.250 C 150.760 222.162,144.951 217.125,138.408 219.229 M177.344 222.634 C 177.344 228.642,178.428 230.078,182.964 230.078 C 187.307 230.078,188.132 228.914,188.437 222.363 L 188.586 219.141 187.262 219.141 L 185.938 219.141 185.938 222.674 C 185.938 226.745,185.147 228.125,182.813 228.125 C 180.478 228.125,179.688 226.745,179.688 222.674 C 179.688 219.884,179.571 219.141,179.134 219.141 C 178.829 219.141,178.301 219.034,177.962 218.904 C 177.423 218.697,177.344 219.177,177.344 222.634 M202.832 219.042 L 197.266 219.162 197.266 220.128 C 197.266 221.040,197.387 221.094,199.442 221.094 C 201.460 221.094,201.613 221.158,201.547 221.973 C 201.508 222.456,201.495 224.478,201.519 226.465 L 201.563 230.078 202.930 230.078 L 204.297 230.078 204.297 225.586 L 204.297 221.094 206.445 221.094 C 208.572 221.094,208.594 221.082,208.594 219.922 C 208.594 219.277,208.550 218.789,208.496 218.836 C 208.442 218.883,205.894 218.976,202.832 219.042 M217.578 224.424 L 217.578 230.078 218.945 230.078 L 220.313 230.078 220.367 227.246 C 220.424 224.291,220.314 219.385,220.189 219.301 C 220.150 219.275,219.546 219.144,218.848 219.011 L 217.578 218.770 217.578 224.424 M232.898 219.400 C 230.969 220.350,229.876 222.124,229.928 224.219 C 229.986 226.615,230.223 228.081,230.522 227.897 C 230.659 227.812,230.998 228.016,231.275 228.350 C 233.596 231.147,239.894 230.560,242.090 227.344 C 245.511 222.332,238.769 216.506,232.898 219.400 M275.224 219.033 C 271.250 220.046,272.687 224.273,277.389 225.402 C 279.658 225.946,280.408 226.671,279.649 227.585 C 279.034 228.326,275.357 228.126,274.357 227.297 C 273.882 226.902,273.700 226.916,273.414 227.369 C 272.336 229.073,274.584 230.245,278.457 229.999 C 284.079 229.641,284.462 224.499,278.947 223.414 C 275.493 222.735,274.630 221.496,277.167 220.859 C 278.527 220.518,281.370 221.360,280.991 221.992 C 280.797 222.315,280.902 222.305,281.328 221.960 C 283.849 219.918,279.649 217.904,275.224 219.033 M144.824 222.068 C 147.910 225.656,142.436 230.387,139.081 227.032 C 137.226 225.177,138.255 220.066,140.238 221.291 C 140.451 221.423,140.625 221.321,140.625 221.065 C 140.625 220.176,143.861 220.948,144.824 222.068 M239.264 221.880 C 240.673 223.205,240.541 225.844,239.000 227.141 C 235.725 229.897,230.843 226.337,232.822 222.638 C 233.889 220.645,237.497 220.221,239.264 221.880 " stroke="none" fill="#1d2024" fill-rule="evenodd"></path><path id="path3" d="M93.071 225.502 C 93.172 226.019,80.350 226.271,76.953 225.820 C 72.789 225.266,69.473 226.376,73.001 227.142 C 74.010 227.361,74.195 227.520,73.782 227.814 C 73.371 228.107,73.414 228.143,73.963 227.965 C 74.359 227.836,75.502 228.125,76.502 228.606 C 78.683 229.657,109.567 230.250,110.183 229.253 C 110.958 228.000,109.885 225.403,108.594 225.403 C 108.073 225.403,108.073 225.445,108.594 225.781 C 109.022 226.058,108.727 226.162,107.496 226.166 C 106.262 226.170,105.887 226.042,106.089 225.684 C 106.309 225.293,106.259 225.293,105.839 225.684 C 105.113 226.357,103.257 226.298,102.986 225.593 C 102.848 225.232,102.511 225.110,102.094 225.270 C 101.484 225.504,101.492 225.554,102.177 225.822 C 102.733 226.040,102.546 226.124,101.465 226.144 C 100.659 226.160,100.000 226.002,100.000 225.794 C 100.000 225.585,100.308 225.514,100.684 225.635 C 101.225 225.809,101.253 225.773,100.817 225.464 C 100.187 225.016,99.114 225.295,99.439 225.822 C 99.841 226.471,97.166 226.185,96.685 225.527 C 96.311 225.015,96.148 224.987,95.898 225.392 C 95.689 225.729,95.735 225.807,96.033 225.623 C 96.281 225.470,96.484 225.531,96.484 225.758 C 96.484 225.986,95.859 226.172,95.094 226.172 C 94.330 226.172,93.801 226.015,93.920 225.822 C 94.039 225.630,93.876 225.373,93.557 225.250 C 93.223 225.122,93.018 225.229,93.071 225.502 M305.114 225.731 C 303.783 226.223,303.354 226.256,303.226 225.879 C 303.029 225.300,301.953 225.217,301.953 225.781 C 301.953 225.996,301.514 226.172,300.977 226.172 C 300.439 226.172,300.000 225.996,300.000 225.781 C 300.000 225.566,299.814 225.391,299.586 225.391 C 299.359 225.391,299.273 225.552,299.395 225.750 C 299.526 225.962,297.814 226.082,295.221 226.043 L 290.824 225.977 290.865 227.734 L 290.906 229.492 305.511 229.602 C 321.349 229.721,321.810 229.671,326.352 227.352 C 327.203 226.918,328.126 226.563,328.403 226.563 C 328.680 226.563,328.906 226.368,328.906 226.131 C 328.906 225.863,328.316 225.755,327.355 225.847 C 326.209 225.956,325.762 225.840,325.643 225.400 C 325.534 225.001,325.464 225.062,325.430 225.586 C 325.387 226.247,325.315 226.277,324.964 225.781 C 324.652 225.340,324.501 225.316,324.352 225.684 C 324.243 225.952,323.982 226.172,323.773 226.172 C 323.563 226.172,323.511 225.979,323.657 225.742 C 323.850 225.430,323.703 225.430,323.120 225.742 C 322.122 226.276,321.756 226.290,322.070 225.781 C 322.203 225.566,322.170 225.377,321.996 225.361 C 321.822 225.344,321.371 225.272,320.994 225.200 C 320.617 225.128,320.408 225.229,320.529 225.425 C 320.864 225.966,318.981 225.851,318.380 225.293 C 317.950 224.894,317.898 224.930,318.094 225.488 C 318.293 226.054,318.102 226.172,316.980 226.172 C 316.235 226.172,315.625 225.996,315.625 225.781 C 315.625 225.566,315.351 225.391,315.016 225.391 C 314.681 225.391,314.516 225.566,314.648 225.781 C 314.781 225.996,314.605 226.172,314.258 226.172 C 313.889 226.172,313.739 225.989,313.898 225.732 C 314.095 225.413,313.970 225.403,313.443 225.699 C 312.973 225.962,312.470 225.974,312.022 225.734 C 311.565 225.490,311.328 225.501,311.328 225.768 C 311.328 225.990,311.142 226.172,310.914 226.172 C 310.687 226.172,310.609 225.996,310.742 225.781 C 310.875 225.566,310.797 225.391,310.570 225.391 C 310.342 225.391,310.154 225.610,310.150 225.879 C 310.146 226.233,310.066 226.244,309.857 225.919 C 309.487 225.340,307.776 225.121,307.069 225.561 C 306.693 225.794,306.608 225.760,306.799 225.451 C 306.952 225.203,307.023 225.021,306.957 225.047 C 306.890 225.073,306.061 225.380,305.114 225.731 M231.749 229.964 C 232.287 230.501,232.511 230.535,232.907 230.136 C 233.303 229.738,233.265 229.692,232.715 229.901 C 232.319 230.052,232.031 229.980,232.031 229.729 C 232.031 229.491,231.818 229.297,231.557 229.297 C 231.260 229.297,231.332 229.546,231.749 229.964 M84.473 230.347 C 84.849 230.446,85.464 230.446,85.840 230.347 C 86.216 230.249,85.908 230.169,85.156 230.169 C 84.404 230.169,84.097 230.249,84.473 230.347 M87.598 230.347 C 87.974 230.446,88.589 230.446,88.965 230.347 C 89.341 230.249,89.033 230.169,88.281 230.169 C 87.529 230.169,87.222 230.249,87.598 230.347 M100.098 230.347 C 100.474 230.446,101.089 230.446,101.465 230.347 C 101.841 230.249,101.533 230.169,100.781 230.169 C 100.029 230.169,99.722 230.249,100.098 230.347 M102.734 230.229 C 102.734 230.312,103.262 230.457,103.906 230.552 C 104.551 230.647,105.078 230.579,105.078 230.401 C 105.078 230.223,104.551 230.078,103.906 230.078 C 103.262 230.078,102.734 230.146,102.734 230.229 M160.059 230.354 C 160.542 230.447,161.333 230.447,161.816 230.354 C 162.300 230.261,161.904 230.185,160.938 230.185 C 159.971 230.185,159.575 230.261,160.059 230.354 M292.316 230.337 C 292.614 230.634,295.321 230.591,295.628 230.283 C 295.741 230.170,294.984 230.078,293.945 230.078 C 292.907 230.078,292.174 230.195,292.316 230.337 M309.473 230.347 C 309.849 230.446,310.464 230.446,310.840 230.347 C 311.216 230.249,310.908 230.169,310.156 230.169 C 309.404 230.169,309.097 230.249,309.473 230.347 M87.252 234.461 C 87.130 234.657,87.093 234.851,87.168 234.892 C 87.243 234.933,88.623 235.650,90.234 236.484 C 91.846 237.319,93.487 238.372,93.882 238.825 C 94.276 239.278,94.487 239.431,94.350 239.165 C 94.185 238.846,94.306 238.760,94.704 238.913 C 95.036 239.040,95.194 239.329,95.055 239.554 C 94.909 239.789,94.988 239.849,95.239 239.694 C 95.480 239.545,97.924 240.647,100.670 242.143 L 105.664 244.862 105.760 259.443 C 105.812 267.462,106.034 275.103,106.252 276.422 C 106.470 277.742,106.588 279.060,106.513 279.352 C 106.439 279.644,106.460 279.725,106.561 279.532 C 106.662 279.339,107.161 280.204,107.669 281.454 C 108.735 284.073,108.745 284.124,108.143 283.752 C 107.861 283.578,107.798 283.645,107.974 283.930 C 108.130 284.182,108.412 284.292,108.601 284.175 C 108.790 284.058,109.136 284.319,109.369 284.755 C 109.602 285.190,109.707 285.547,109.602 285.547 C 109.497 285.547,109.851 285.988,110.390 286.527 C 110.931 287.067,111.246 287.707,111.093 287.954 C 110.937 288.207,110.988 288.296,111.211 288.158 C 111.656 287.883,113.397 289.562,113.090 289.970 C 112.980 290.116,113.007 290.147,113.149 290.041 C 113.291 289.935,113.996 290.296,114.716 290.845 C 115.848 291.709,118.601 293.243,131.445 300.168 C 132.734 300.863,136.726 302.984,140.315 304.882 C 143.905 306.779,146.752 308.476,146.643 308.654 C 146.533 308.831,146.745 308.860,147.114 308.718 C 147.605 308.530,147.699 308.600,147.465 308.978 C 147.251 309.323,147.296 309.402,147.598 309.216 C 148.172 308.861,159.398 314.881,159.091 315.378 C 158.966 315.580,159.061 315.623,159.303 315.474 C 159.724 315.214,162.094 316.201,162.500 316.806 C 162.607 316.966,163.047 317.172,163.477 317.263 C 163.906 317.354,164.210 317.652,164.150 317.923 C 164.091 318.195,164.215 318.311,164.426 318.181 C 164.861 317.912,171.258 321.060,170.933 321.384 C 170.817 321.501,170.410 321.351,170.029 321.052 C 169.395 320.554,169.383 320.568,169.887 321.209 C 170.190 321.595,170.687 321.815,170.992 321.698 C 171.722 321.418,176.993 324.229,176.682 324.732 C 176.550 324.946,176.632 325.003,176.863 324.860 C 177.441 324.503,179.331 325.410,179.029 325.899 C 178.895 326.115,178.964 326.182,179.182 326.048 C 179.399 325.913,181.492 326.793,183.832 328.002 C 188.591 330.462,192.359 332.619,191.288 332.270 C 190.859 332.130,190.681 332.197,190.833 332.442 C 190.970 332.663,191.391 332.746,191.770 332.626 C 192.149 332.505,193.213 332.744,194.134 333.157 C 195.091 333.585,195.577 333.983,195.268 334.085 C 194.970 334.183,195.071 334.207,195.492 334.139 C 195.912 334.071,197.561 334.196,199.156 334.418 C 202.883 334.936,206.706 334.144,210.864 331.993 C 214.111 330.313,214.232 330.269,213.830 330.920 C 213.652 331.208,213.723 331.264,214.028 331.076 C 214.290 330.914,214.405 330.681,214.283 330.559 C 213.885 330.161,218.525 327.758,219.336 327.941 C 219.766 328.038,219.881 328.011,219.591 327.881 C 218.816 327.532,224.377 324.555,225.266 324.843 C 225.790 325.013,225.839 324.976,225.456 324.701 C 225.035 324.399,225.060 324.279,225.585 324.078 C 226.504 323.725,226.648 323.764,226.330 324.279 C 226.156 324.561,226.223 324.624,226.509 324.447 C 226.760 324.292,226.869 324.007,226.750 323.815 C 226.631 323.623,227.463 322.998,228.599 322.427 C 229.735 321.856,233.482 319.837,236.927 317.941 C 243.930 314.086,244.823 313.666,244.340 314.447 C 244.125 314.794,244.171 314.871,244.477 314.682 C 244.729 314.526,244.854 314.268,244.755 314.109 C 244.381 313.503,254.350 308.444,254.766 309.028 C 255.070 309.455,255.107 309.429,254.939 308.906 C 254.790 308.440,255.089 308.060,255.939 307.636 C 257.390 306.912,257.554 306.892,257.189 307.482 C 257.015 307.764,257.082 307.827,257.368 307.651 C 257.619 307.495,257.732 307.217,257.618 307.032 C 257.382 306.651,258.907 306.044,259.707 306.200 C 259.997 306.256,260.122 306.120,259.985 305.898 C 259.663 305.378,265.107 302.617,265.739 302.979 C 265.998 303.128,266.080 303.106,265.920 302.930 C 265.518 302.486,267.084 301.452,267.639 301.796 C 267.887 301.949,267.991 301.914,267.870 301.719 C 267.750 301.524,270.573 299.783,274.143 297.850 C 277.714 295.917,282.048 293.480,283.775 292.434 C 285.501 291.388,287.126 290.524,287.385 290.513 C 287.644 290.503,287.789 290.385,287.706 290.252 C 287.624 290.118,288.180 289.401,288.942 288.657 C 294.505 283.228,295.320 280.036,295.341 263.605 C 295.352 254.442,295.483 250.847,295.823 250.427 C 296.192 249.970,296.183 249.914,295.783 250.154 C 295.383 250.395,295.301 249.868,295.392 247.651 L 295.508 244.842 297.266 243.874 C 298.232 243.341,300.738 241.943,302.833 240.766 C 304.928 239.590,306.845 238.752,307.092 238.905 C 307.365 239.074,307.437 239.012,307.274 238.748 C 307.113 238.488,307.601 238.014,308.483 237.573 C 312.360 235.632,314.365 234.428,313.942 234.294 C 313.586 234.182,263.924 234.234,260.401 234.351 C 259.796 234.371,259.754 234.476,260.156 234.961 C 260.424 235.283,260.512 235.547,260.352 235.547 C 260.192 235.547,260.278 235.809,260.543 236.129 C 260.809 236.448,261.200 236.602,261.414 236.471 C 261.884 236.180,268.795 242.970,268.506 243.439 C 268.393 243.621,268.450 243.721,268.632 243.662 C 269.188 243.481,272.665 246.545,272.397 246.979 C 272.258 247.203,272.319 247.279,272.531 247.148 C 273.296 246.675,276.218 250.181,276.440 251.837 C 276.968 255.771,272.084 258.649,268.739 256.374 C 267.006 255.196,261.350 249.499,261.566 249.149 C 261.682 248.962,261.622 248.857,261.433 248.916 C 260.871 249.091,248.448 237.022,248.712 236.558 C 248.845 236.324,248.808 236.265,248.629 236.427 C 248.253 236.768,246.875 235.636,246.875 234.986 C 246.875 234.327,245.752 234.265,233.091 234.221 C 221.201 234.179,220.133 234.308,220.985 235.686 C 221.111 235.891,221.012 235.933,220.763 235.779 C 220.354 235.526,220.131 236.013,220.276 236.845 C 220.307 237.023,220.152 237.056,219.932 236.920 C 219.711 236.784,219.531 236.817,219.531 236.993 C 219.531 237.169,219.083 237.796,218.535 238.388 C 217.986 238.979,217.636 239.621,217.756 239.815 C 217.876 240.009,217.841 240.242,217.678 240.332 C 217.516 240.423,217.581 240.452,217.822 240.397 C 218.439 240.256,221.176 243.141,220.809 243.544 C 220.643 243.726,220.704 243.763,220.944 243.627 C 221.483 243.319,222.770 244.667,222.364 245.114 C 222.203 245.292,222.267 245.326,222.506 245.189 C 223.045 244.882,224.332 246.229,223.927 246.676 C 223.765 246.855,223.825 246.891,224.059 246.758 C 224.455 246.532,227.268 249.050,227.051 249.436 C 226.997 249.531,227.085 249.622,227.246 249.637 C 227.855 249.695,228.878 250.902,228.641 251.284 C 228.506 251.504,228.570 251.575,228.783 251.443 C 229.247 251.157,231.828 253.607,231.854 254.358 C 231.863 254.646,232.073 254.842,232.319 254.793 C 233.008 254.654,237.145 258.605,236.851 259.121 C 236.709 259.368,236.739 259.438,236.918 259.276 C 237.096 259.114,237.641 259.243,238.127 259.561 C 239.065 260.176,246.876 260.620,246.875 260.059 C 246.875 259.897,247.710 259.778,248.730 259.793 C 249.899 259.810,250.323 259.924,249.877 260.100 C 249.460 260.264,250.052 260.379,251.313 260.379 C 252.493 260.379,253.373 260.241,253.269 260.073 C 253.164 259.904,254.539 259.783,256.325 259.805 C 258.549 259.831,259.263 259.942,258.594 260.156 L 257.617 260.469 258.691 260.508 C 259.282 260.529,259.766 260.371,259.766 260.156 C 259.766 259.941,260.249 259.768,260.840 259.772 C 261.677 259.776,261.785 259.861,261.328 260.156 C 260.879 260.447,261.015 260.535,261.914 260.535 C 262.813 260.535,262.950 260.447,262.500 260.156 C 262.071 259.879,262.333 259.786,263.477 259.811 C 264.822 259.839,264.903 259.886,264.063 260.149 C 263.372 260.365,263.844 260.459,265.677 260.467 C 268.413 260.480,270.951 261.392,270.460 262.186 C 270.296 262.452,270.370 262.511,270.651 262.337 C 271.406 261.870,272.382 264.715,272.036 266.372 C 271.875 267.143,271.777 267.918,271.819 268.095 C 271.860 268.273,271.714 268.306,271.494 268.170 C 271.274 268.034,271.094 268.071,271.094 268.252 C 271.094 270.046,249.894 271.227,248.796 269.493 C 248.606 269.192,248.447 269.139,248.443 269.377 C 248.440 269.614,248.880 270.285,249.420 270.868 C 249.961 271.452,250.285 272.120,250.141 272.353 C 249.987 272.603,250.061 272.665,250.321 272.504 C 250.578 272.345,252.100 273.508,253.953 275.276 C 264.309 285.158,264.573 285.437,264.351 286.284 C 264.233 286.739,264.295 287.012,264.490 286.892 C 265.062 286.538,264.895 288.611,264.251 289.857 C 263.122 292.040,259.151 292.965,257.021 291.543 C 255.250 290.360,253.543 288.553,253.789 288.122 C 253.922 287.887,253.887 287.826,253.710 287.987 C 253.533 288.147,250.791 285.730,247.615 282.616 C 241.559 276.675,240.884 276.198,241.270 278.125 C 241.439 278.971,241.355 279.299,240.967 279.303 C 240.526 279.308,240.530 279.372,240.988 279.662 C 241.928 280.257,242.517 294.914,241.602 294.928 C 241.387 294.931,241.473 295.100,241.794 295.302 C 242.258 295.596,242.278 295.769,241.891 296.156 C 241.625 296.422,241.406 297.062,241.406 297.576 C 241.406 298.857,240.179 300.844,239.539 300.598 C 239.255 300.489,239.118 300.555,239.235 300.745 C 239.535 301.230,238.488 301.563,236.661 301.563 C 234.863 301.563,233.452 300.937,233.838 300.311 C 233.993 300.060,233.927 299.989,233.681 300.141 C 232.221 301.044,232.031 299.140,232.031 283.594 C 232.031 271.000,231.938 268.399,231.459 267.716 C 231.144 267.267,231.013 266.760,231.166 266.590 C 231.320 266.420,231.254 266.390,231.021 266.523 C 230.481 266.830,227.615 263.932,228.019 263.487 C 228.185 263.305,228.114 263.274,227.862 263.418 C 227.251 263.769,221.355 257.947,221.721 257.355 C 221.881 257.096,221.823 257.017,221.581 257.167 C 221.354 257.307,218.823 255.049,215.958 252.149 C 213.094 249.248,210.523 246.875,210.245 246.875 C 209.357 246.875,205.860 248.823,205.850 249.323 C 205.689 257.785,205.973 278.377,206.256 278.718 C 206.464 278.968,206.504 279.317,206.344 279.493 C 206.185 279.669,206.262 279.694,206.516 279.548 C 206.965 279.291,207.599 279.916,207.611 280.627 C 207.614 280.821,207.948 281.029,208.352 281.088 C 209.318 281.230,211.757 283.607,211.448 284.107 C 211.316 284.321,211.382 284.388,211.595 284.256 C 212.039 283.981,214.965 286.825,214.656 287.232 C 214.545 287.379,214.571 287.412,214.714 287.304 C 215.093 287.020,216.373 288.273,216.249 288.806 C 216.191 289.055,216.221 289.115,216.315 288.941 C 216.410 288.767,216.816 288.922,217.219 289.286 C 217.621 289.650,217.839 290.128,217.704 290.347 C 217.568 290.566,217.637 290.635,217.856 290.499 C 218.363 290.186,219.633 291.555,219.239 291.989 C 219.078 292.167,219.136 292.204,219.370 292.071 C 219.888 291.776,222.789 294.658,222.383 295.065 C 222.224 295.224,222.365 295.250,222.695 295.123 C 223.092 294.971,223.979 295.614,225.300 297.011 C 226.402 298.176,227.357 299.076,227.422 299.010 C 227.877 298.555,227.666 302.906,227.187 303.831 C 224.712 308.619,221.379 307.465,212.310 298.681 C 208.875 295.355,205.997 292.701,205.913 292.785 C 205.830 292.868,205.791 294.511,205.826 296.436 C 205.863 298.504,205.724 300.038,205.484 300.186 C 205.261 300.324,205.081 300.646,205.084 300.902 C 205.088 301.181,205.241 301.133,205.469 300.781 C 205.721 300.392,205.849 302.704,205.853 307.683 C 205.859 315.021,205.713 316.603,205.064 316.202 C 204.887 316.093,204.614 316.209,204.459 316.460 C 204.282 316.746,204.345 316.813,204.627 316.639 C 205.378 316.175,205.132 317.017,204.297 317.773 C 203.867 318.162,203.513 318.321,203.510 318.127 C 203.506 317.933,203.344 318.026,203.148 318.335 C 202.214 319.812,198.094 318.950,196.519 316.947 C 195.522 315.679,195.215 296.881,196.191 296.869 C 196.541 296.865,196.526 296.766,196.136 296.519 C 195.747 296.273,195.650 295.664,195.794 294.384 C 196.055 292.072,196.052 292.073,190.115 297.878 C 183.829 304.024,181.466 306.183,181.808 305.469 C 182.033 305.000,181.986 305.006,181.572 305.499 C 178.841 308.750,172.771 304.040,174.473 299.991 C 175.050 298.619,188.914 284.885,189.537 285.068 C 189.738 285.127,189.810 285.027,189.697 284.844 C 189.584 284.662,190.890 283.124,192.598 281.426 L 195.703 278.339 195.703 263.666 L 195.703 248.993 193.652 247.928 C 191.113 246.609,191.024 246.611,189.662 248.033 C 189.052 248.670,188.376 249.082,188.161 248.949 C 187.946 248.816,187.883 248.890,188.021 249.114 C 188.298 249.561,187.388 250.500,186.976 250.192 C 186.834 250.086,186.809 250.120,186.920 250.266 C 187.238 250.687,185.084 252.734,184.608 252.463 C 184.373 252.328,184.310 252.362,184.469 252.538 C 184.865 252.975,183.995 253.959,183.489 253.646 C 183.265 253.508,183.190 253.569,183.322 253.782 C 183.597 254.227,180.754 257.152,180.346 256.844 C 180.199 256.732,180.172 256.764,180.287 256.914 C 180.608 257.335,171.009 266.788,170.534 266.518 C 170.305 266.388,170.243 266.420,170.396 266.590 C 170.550 266.760,170.418 267.267,170.103 267.716 C 169.625 268.399,169.531 270.966,169.531 283.309 C 169.531 300.934,169.363 301.563,164.648 301.563 C 160.128 301.563,159.703 300.335,159.845 287.679 C 159.960 277.464,159.905 276.820,159.018 277.889 C 158.769 278.189,158.176 278.362,157.700 278.272 C 157.008 278.141,156.974 278.171,157.531 278.419 C 158.449 278.829,146.231 291.062,143.954 292.014 C 140.494 293.459,136.432 290.701,136.830 287.176 C 137.034 285.366,142.012 279.975,150.293 272.594 C 152.833 270.331,153.608 268.595,151.876 269.048 C 151.083 269.255,151.074 269.291,151.753 269.529 C 153.290 270.069,151.466 270.186,142.188 270.147 C 130.735 270.099,128.906 269.422,128.906 265.234 C 128.906 261.529,131.084 260.415,138.337 260.413 C 141.508 260.412,144.013 260.266,143.903 260.088 C 143.794 259.911,144.846 259.766,146.243 259.766 C 147.639 259.766,148.891 259.941,149.023 260.156 C 149.156 260.371,150.133 260.547,151.195 260.547 C 152.256 260.547,153.125 260.371,153.125 260.156 C 153.125 259.941,153.960 259.768,154.980 259.772 C 156.389 259.776,156.695 259.876,156.250 260.188 C 155.805 260.499,155.899 260.530,156.641 260.315 C 157.178 260.160,158.901 260.064,160.469 260.102 C 162.331 260.148,163.499 259.999,163.834 259.676 C 181.781 242.287,183.962 240.064,183.892 239.226 C 183.852 238.737,183.691 238.416,183.535 238.513 C 183.158 238.746,180.761 235.240,181.016 234.827 C 181.275 234.410,182.147 234.452,167.885 234.189 L 155.497 233.961 153.979 235.333 C 153.143 236.087,152.346 236.620,152.207 236.516 C 152.067 236.413,152.039 236.444,152.145 236.585 C 152.430 236.967,151.577 237.861,151.046 237.736 C 150.793 237.677,150.737 237.708,150.921 237.806 C 151.105 237.904,149.888 239.360,148.215 241.043 C 146.543 242.725,145.003 243.995,144.793 243.865 C 144.582 243.736,144.523 243.811,144.661 244.034 C 145.118 244.774,132.257 256.902,130.705 257.193 C 129.162 257.483,127.241 257.122,127.562 256.603 C 127.679 256.414,127.509 256.361,127.184 256.486 C 125.746 257.037,123.804 253.268,124.368 251.021 C 124.661 249.853,128.090 246.417,128.630 246.750 C 128.848 246.885,128.914 246.813,128.776 246.589 C 128.637 246.365,131.247 243.595,134.575 240.432 C 137.902 237.269,140.625 234.524,140.625 234.333 C 140.625 233.848,139.175 233.897,138.208 234.414 C 137.767 234.650,137.506 234.681,137.630 234.481 C 137.766 234.260,128.036 234.116,112.663 234.111 C 97.867 234.107,87.381 234.251,87.252 234.461 M139.751 260.034 C 139.377 260.132,138.674 260.135,138.188 260.042 C 137.702 259.948,138.008 259.868,138.867 259.864 C 139.727 259.860,140.124 259.936,139.751 260.034 M170.198 271.187 C 170.105 271.673,170.025 271.367,170.020 270.508 C 170.016 269.648,170.092 269.251,170.190 269.624 C 170.288 269.998,170.292 270.701,170.198 271.187 M106.491 281.468 C 106.363 281.800,106.418 281.974,106.612 281.854 C 106.806 281.734,107.054 281.857,107.162 282.126 C 107.285 282.432,107.372 282.367,107.391 281.957 C 107.433 281.067,106.780 280.713,106.491 281.468 M137.630 304.475 C 137.630 304.788,137.758 304.965,137.915 304.868 C 138.071 304.771,138.300 304.955,138.423 305.276 C 138.547 305.597,138.833 305.859,139.059 305.859 C 139.287 305.859,139.185 305.423,138.831 304.883 C 138.113 303.787,137.630 303.623,137.630 304.475 " stroke="none" fill="#048adb" fill-rule="evenodd"></path><path id="path4" d="M162.879 137.402 C 162.713 141.747,162.759 144.922,162.988 144.922 C 163.149 144.922,163.281 143.252,163.281 141.211 L 163.281 137.500 164.438 137.500 L 165.596 137.500 165.725 141.113 L 165.853 144.727 165.935 140.918 L 166.016 137.109 164.453 137.109 C 163.594 137.109,162.886 137.241,162.879 137.402 M171.478 140.723 C 171.472 144.600,171.281 145.261,170.216 145.097 C 169.841 145.039,169.419 145.179,169.277 145.408 C 169.131 145.644,169.203 145.710,169.444 145.562 C 169.677 145.418,169.971 145.466,170.096 145.669 C 170.221 145.872,169.926 146.114,169.439 146.208 C 168.569 146.375,168.569 146.379,169.405 146.431 C 171.095 146.537,171.875 144.811,171.875 140.963 L 171.875 137.500 173.047 137.500 L 174.219 137.500 174.219 140.885 C 174.219 144.941,174.685 144.977,174.790 140.930 C 174.885 137.252,174.818 137.109,173.005 137.109 L 171.484 137.109 171.478 140.723 M207.910 137.401 L 213.281 137.522 213.281 138.467 C 213.281 139.313,213.086 139.428,211.426 139.564 C 209.731 139.703,209.774 139.719,211.914 139.749 C 215.080 139.794,215.122 139.802,214.453 140.234 C 214.101 140.462,214.053 140.615,214.332 140.619 C 214.588 140.622,214.880 140.491,214.981 140.328 C 215.232 139.922,214.244 138.620,213.926 138.938 C 213.786 139.078,213.672 138.724,213.672 138.151 L 213.672 137.109 208.105 137.195 L 202.539 137.281 207.910 137.401 M247.563 137.386 C 248.049 137.479,248.752 137.476,249.126 137.378 C 249.499 137.280,249.102 137.204,248.242 137.208 C 247.383 137.212,247.077 137.292,247.563 137.386 M152.459 137.931 C 153.179 138.351,153.053 139.766,152.249 140.283 C 152.009 140.437,152.022 140.621,152.282 140.782 C 152.885 141.155,153.621 139.535,153.346 138.440 C 153.209 137.892,152.828 137.505,152.434 137.512 C 151.808 137.523,151.810 137.554,152.459 137.931 M184.375 137.878 C 184.375 138.086,184.683 138.141,185.059 138.001 C 185.680 137.768,185.689 137.813,185.156 138.501 C 184.615 139.200,184.622 139.217,185.250 138.725 C 185.623 138.432,185.833 138.037,185.715 137.846 C 185.426 137.379,184.375 137.404,184.375 137.878 M233.043 137.834 C 232.929 138.017,233.313 138.589,233.896 139.103 C 234.873 139.966,234.898 139.971,234.214 139.160 C 233.756 138.618,233.654 138.281,233.947 138.281 C 234.208 138.281,234.312 138.105,234.180 137.891 C 233.884 137.412,233.321 137.384,233.043 137.834 M202.375 138.890 C 202.358 139.118,202.620 139.645,202.959 140.062 C 203.297 140.479,203.468 140.610,203.340 140.354 C 203.179 140.033,203.690 139.841,204.971 139.741 L 206.836 139.594 204.818 139.524 C 203.627 139.482,202.719 139.253,202.602 138.965 C 202.494 138.696,202.392 138.663,202.375 138.890 M228.223 139.551 C 228.277 139.820,227.936 140.044,227.462 140.051 C 225.845 140.073,226.188 140.477,227.841 140.498 C 228.749 140.509,229.265 140.437,228.988 140.338 C 228.600 140.200,228.588 140.031,228.938 139.610 C 229.296 139.179,229.258 139.063,228.759 139.063 C 228.410 139.063,228.169 139.282,228.223 139.551 M246.575 140.234 C 246.575 140.986,246.655 141.294,246.754 140.918 C 246.852 140.542,246.852 139.927,246.754 139.551 C 246.655 139.175,246.575 139.482,246.575 140.234 M187.282 139.881 C 187.136 140.117,187.301 140.594,187.649 140.942 C 188.232 141.524,188.281 141.519,188.281 140.881 C 188.281 140.500,188.105 140.297,187.891 140.430 C 187.676 140.562,187.500 140.500,187.500 140.290 C 187.500 140.080,187.720 139.820,187.988 139.712 C 188.340 139.570,188.347 139.506,188.011 139.484 C 187.755 139.467,187.427 139.646,187.282 139.881 M230.724 140.020 C 232.096 140.617,232.419 141.315,232.298 143.423 C 232.253 144.210,232.350 144.771,232.514 144.669 C 233.898 143.814,231.942 139.430,230.194 139.468 C 229.759 139.478,229.961 139.688,230.724 140.020 M145.925 140.595 C 145.278 141.310,145.279 141.342,145.930 141.247 C 146.307 141.191,146.658 140.853,146.710 140.495 C 146.832 139.668,146.756 139.678,145.925 140.595 M189.009 140.193 C 189.302 140.379,189.390 140.611,189.204 140.709 C 189.019 140.807,189.087 140.834,189.355 140.769 C 189.624 140.703,189.844 140.820,189.844 141.028 C 189.844 141.236,189.639 141.406,189.388 141.406 C 189.137 141.406,189.013 141.487,189.112 141.586 C 189.211 141.685,189.678 141.665,190.150 141.542 L 191.008 141.317 190.071 140.580 C 189.556 140.175,188.987 139.846,188.806 139.850 C 188.625 139.853,188.716 140.008,189.009 140.193 M222.565 140.559 C 222.696 140.901,222.623 141.041,222.388 140.896 C 222.135 140.740,222.064 141.040,222.194 141.711 L 222.399 142.773 222.681 141.730 C 222.836 141.156,223.062 140.526,223.183 140.330 C 223.304 140.134,223.164 139.974,222.872 139.974 C 222.560 139.974,222.433 140.216,222.565 140.559 M211.626 140.511 C 212.112 140.604,212.815 140.601,213.188 140.503 C 213.562 140.405,213.164 140.329,212.305 140.333 C 211.445 140.337,211.140 140.417,211.626 140.511 M259.466 141.406 C 259.466 142.158,259.546 142.466,259.644 142.090 C 259.743 141.714,259.743 141.099,259.644 140.723 C 259.546 140.347,259.466 140.654,259.466 141.406 M184.464 142.188 C 184.481 143.790,184.675 144.243,185.202 143.917 C 185.442 143.769,185.412 143.472,185.120 143.120 C 184.743 142.666,184.776 142.607,185.296 142.806 C 185.649 142.942,185.938 143.172,185.938 143.318 C 185.938 143.464,186.317 143.612,186.781 143.647 C 187.784 143.723,188.299 144.420,187.975 145.264 C 187.769 145.801,187.815 145.805,188.359 145.300 C 188.798 144.892,188.848 144.644,188.531 144.440 C 188.230 144.246,188.276 144.144,188.672 144.126 C 188.994 144.112,188.323 143.741,187.181 143.302 C 185.882 142.803,184.981 142.188,184.776 141.662 C 184.504 140.962,184.452 141.050,184.464 142.188 M192.773 141.798 C 192.639 142.014,192.058 142.101,191.480 141.991 C 190.902 141.882,190.693 141.905,191.016 142.043 C 191.338 142.180,191.953 142.469,192.383 142.684 C 192.813 142.899,193.034 142.935,192.874 142.765 C 192.715 142.594,192.781 142.219,193.020 141.930 C 193.259 141.642,193.356 141.406,193.235 141.406 C 193.114 141.406,192.906 141.583,192.773 141.798 M248.873 143.184 L 248.918 145.117 249.227 143.555 C 249.400 142.677,249.381 141.829,249.182 141.621 C 248.969 141.397,248.846 142.017,248.873 143.184 M252.222 142.741 C 253.040 144.351,252.995 144.332,253.548 143.295 C 253.990 142.465,253.976 142.431,253.384 142.919 C 252.629 143.542,252.502 142.985,253.223 142.208 C 253.613 141.787,253.613 141.737,253.223 141.958 C 252.954 142.110,252.734 142.077,252.734 141.885 C 252.734 141.693,252.481 141.536,252.172 141.536 C 251.693 141.536,251.701 141.716,252.222 142.741 M225.091 142.969 C 225.091 143.721,225.171 144.028,225.269 143.652 C 225.368 143.276,225.368 142.661,225.269 142.285 C 225.171 141.909,225.091 142.217,225.091 142.969 M250.004 143.758 C 250.237 144.192,250.304 144.747,250.153 144.990 C 249.982 145.267,250.054 145.325,250.346 145.145 C 250.670 144.945,250.765 145.136,250.659 145.768 C 250.574 146.269,250.580 146.458,250.672 146.187 C 250.765 145.915,251.016 145.802,251.230 145.934 C 251.445 146.067,251.252 145.454,250.802 144.572 C 250.352 143.690,249.894 142.969,249.783 142.969 C 249.672 142.969,249.772 143.324,250.004 143.758 M246.205 145.117 C 246.208 146.191,246.284 146.584,246.374 145.991 C 246.464 145.397,246.461 144.518,246.369 144.038 C 246.276 143.557,246.203 144.043,246.205 145.117 M222.163 144.489 C 221.875 145.593,222.259 146.946,222.804 146.747 C 223.045 146.658,223.594 146.871,224.023 147.219 C 224.782 147.833,224.786 147.829,224.138 147.059 C 223.772 146.623,223.226 145.681,222.925 144.966 C 222.438 143.807,222.355 143.755,222.163 144.489 M257.148 145.703 C 257.148 146.885,257.222 147.368,257.311 146.777 C 257.401 146.187,257.401 145.220,257.311 144.629 C 257.222 144.038,257.148 144.521,257.148 145.703 M189.946 144.411 C 190.325 144.510,190.517 144.780,190.374 145.012 C 190.219 145.262,190.297 145.320,190.565 145.154 C 190.813 145.001,191.016 145.068,191.016 145.302 C 191.016 145.536,190.620 145.887,190.137 146.082 L 189.258 146.435 190.149 146.460 C 190.639 146.473,191.142 146.218,191.267 145.893 C 191.553 145.148,190.732 144.126,189.894 144.186 C 189.362 144.224,189.371 144.261,189.946 144.411 M166.174 144.981 C 165.849 145.507,167.061 146.505,167.946 146.439 C 168.368 146.408,168.328 146.336,167.814 146.204 C 167.212 146.050,167.175 145.945,167.619 145.638 C 168.003 145.373,167.886 145.340,167.226 145.527 C 166.467 145.743,166.334 145.673,166.530 145.162 C 166.810 144.434,166.584 144.319,166.174 144.981 M184.420 145.558 C 184.447 146.209,184.540 146.395,184.643 146.000 C 184.806 145.380,184.919 145.372,185.946 145.903 C 186.564 146.223,187.387 146.477,187.774 146.467 C 188.160 146.458,187.816 146.214,187.008 145.926 C 186.200 145.638,185.277 145.185,184.957 144.919 C 184.463 144.509,184.382 144.606,184.420 145.558 M259.872 146.484 C 259.872 147.451,259.948 147.847,260.041 147.363 C 260.134 146.880,260.134 146.089,260.041 145.605 C 259.948 145.122,259.872 145.518,259.872 146.484 M150.781 145.931 C 150.083 146.318,149.993 146.475,150.465 146.479 C 150.829 146.482,151.234 146.309,151.367 146.094 C 151.750 145.474,152.280 145.636,152.752 146.516 C 153.105 147.177,153.053 147.430,152.472 147.864 C 151.805 148.363,151.816 148.384,152.637 148.177 C 153.640 147.924,153.693 147.692,153.062 146.307 C 152.557 145.199,152.205 145.141,150.781 145.931 M226.757 145.704 C 226.513 146.100,228.465 147.056,228.811 146.710 C 228.914 146.607,228.539 146.407,227.978 146.266 C 227.418 146.126,227.056 145.853,227.174 145.661 C 227.293 145.470,227.302 145.313,227.195 145.313 C 227.087 145.313,226.890 145.489,226.757 145.704 M142.188 146.591 C 142.188 146.793,142.435 146.864,142.737 146.748 C 143.386 146.499,144.665 147.769,144.239 148.239 C 144.078 148.417,144.178 148.428,144.463 148.264 C 144.868 148.029,144.803 147.775,144.163 147.094 C 143.334 146.212,142.188 145.920,142.188 146.591 M193.422 146.920 C 193.150 147.355,192.391 147.937,191.736 148.212 C 190.822 148.596,190.690 148.770,191.170 148.954 C 191.515 149.086,191.797 149.054,191.797 148.882 C 191.797 148.710,192.227 148.339,192.753 148.058 C 193.278 147.777,193.810 147.282,193.934 146.959 C 194.279 146.059,193.974 146.035,193.422 146.920 M252.930 147.266 C 252.176 147.589,252.179 147.602,253.004 147.629 C 253.475 147.644,253.969 147.480,254.102 147.266 C 254.387 146.804,254.005 146.804,252.930 147.266 M165.407 148.221 C 165.824 148.555,166.439 148.814,166.774 148.797 C 167.300 148.771,167.303 148.737,166.797 148.549 C 166.475 148.430,165.859 148.170,165.430 147.973 C 164.661 147.619,164.661 147.623,165.407 148.221 M225.151 148.172 C 225.291 149.039,225.976 149.805,226.660 149.859 C 227.720 149.943,227.466 149.264,226.330 148.979 C 225.689 148.818,225.486 148.620,225.777 148.440 C 226.110 148.234,226.077 148.094,225.657 147.933 C 225.332 147.808,225.110 147.913,225.151 148.172 M185.026 148.307 C 184.552 148.782,184.756 149.219,185.449 149.213 C 185.984 149.208,186.017 149.133,185.600 148.869 C 185.151 148.585,185.151 148.499,185.600 148.320 C 185.893 148.204,185.942 148.095,185.710 148.078 C 185.477 148.061,185.169 148.164,185.026 148.307 M206.527 149.219 C 206.640 149.648,206.882 150.000,207.065 150.000 C 207.248 150.000,207.302 149.750,207.184 149.445 C 207.046 149.086,207.291 148.829,207.880 148.717 C 208.594 148.581,208.525 148.533,207.556 148.491 C 206.504 148.445,206.353 148.552,206.527 149.219 M257.271 148.999 C 257.498 149.590,258.594 150.163,258.594 149.691 C 258.594 149.535,258.249 149.191,257.827 148.928 C 257.195 148.533,257.097 148.546,257.271 148.999 M188.811 149.414 C 189.134 149.736,189.468 150.000,189.555 150.000 C 189.642 150.000,189.714 149.736,189.714 149.414 C 189.714 149.092,189.379 148.828,188.969 148.828 C 188.308 148.828,188.291 148.893,188.811 149.414 M305.176 154.977 C 306.626 155.052,308.999 155.052,310.449 154.977 C 311.899 154.902,310.713 154.841,307.813 154.841 C 304.912 154.841,303.726 154.902,305.176 154.977 M109.834 155.604 C 109.603 157.305,109.629 176.563,109.863 176.563 C 110.024 176.563,110.156 171.919,110.156 166.243 C 110.156 158.567,110.276 155.884,110.625 155.768 C 110.936 155.664,110.893 155.535,110.495 155.382 C 110.165 155.256,109.868 155.356,109.834 155.604 M315.141 155.354 C 315.627 155.448,316.330 155.444,316.704 155.347 C 317.077 155.249,316.680 155.172,315.820 155.177 C 314.961 155.181,314.655 155.261,315.141 155.354 M72.473 155.839 C 72.187 156.302,72.162 211.746,72.448 212.031 C 72.563 212.146,72.656 199.564,72.656 184.071 L 72.656 155.902 74.512 155.756 L 76.367 155.610 74.535 155.539 C 73.527 155.500,72.599 155.636,72.473 155.839 M86.328 166.132 L 86.523 176.758 86.627 166.432 C 86.685 160.753,86.597 155.972,86.432 155.807 C 86.268 155.642,86.220 160.288,86.328 166.132 M115.723 155.738 C 116.099 155.836,116.714 155.836,117.090 155.738 C 117.466 155.640,117.158 155.559,116.406 155.559 C 115.654 155.559,115.347 155.640,115.723 155.738 M119.634 155.749 C 120.228 155.839,121.107 155.836,121.587 155.744 C 122.068 155.651,121.582 155.578,120.508 155.580 C 119.434 155.583,119.041 155.659,119.634 155.749 M124.219 184.297 L 124.414 213.086 124.514 184.592 C 124.569 168.921,124.482 155.966,124.319 155.803 C 124.156 155.641,124.111 168.463,124.219 184.297 M145.020 155.738 C 145.396 155.836,146.011 155.836,146.387 155.738 C 146.763 155.640,146.455 155.559,145.703 155.559 C 144.951 155.559,144.644 155.640,145.020 155.738 M277.134 165.723 L 275.195 167.773 277.246 165.835 C 279.152 164.034,279.476 163.672,279.185 163.672 C 279.123 163.672,278.200 164.595,277.134 165.723 M307.329 165.901 C 307.815 165.995,308.518 165.991,308.891 165.893 C 309.265 165.796,308.867 165.719,308.008 165.724 C 307.148 165.728,306.843 165.808,307.329 165.901 M312.207 166.285 C 312.583 166.383,313.198 166.383,313.574 166.285 C 313.950 166.187,313.643 166.106,312.891 166.106 C 312.139 166.106,311.831 166.187,312.207 166.285 M240.267 170.508 C 240.267 170.723,240.604 171.514,241.016 172.266 C 241.427 173.018,241.764 173.457,241.764 173.242 C 241.764 173.027,241.427 172.236,241.016 171.484 C 240.604 170.732,240.267 170.293,240.267 170.508 M289.233 172.752 C 288.301 173.783,288.275 173.855,289.091 173.140 C 289.645 172.655,290.187 172.348,290.296 172.457 C 290.405 172.567,290.495 172.393,290.495 172.070 C 290.495 171.318,290.567 171.279,289.233 172.752 M269.485 180.554 C 269.665 181.639,269.720 181.694,269.843 180.912 C 269.923 180.404,269.827 179.827,269.630 179.630 C 269.413 179.413,269.356 179.778,269.485 180.554 M268.929 184.559 C 268.938 185.920,269.077 186.952,269.238 186.853 C 269.630 186.612,269.615 182.520,269.222 182.277 C 269.052 182.172,268.920 183.199,268.929 184.559 M284.474 186.523 C 284.478 187.383,284.558 187.688,284.651 187.202 C 284.745 186.717,284.741 186.013,284.643 185.640 C 284.546 185.267,284.469 185.664,284.474 186.523 M86.328 200.553 C 86.328 208.545,86.188 212.895,85.928 213.024 C 85.708 213.133,85.751 213.177,86.025 213.122 C 86.413 213.043,86.546 210.431,86.627 201.354 C 86.705 192.617,86.852 189.610,87.213 189.381 C 87.574 189.152,87.547 189.056,87.109 189.001 C 86.787 188.961,87.666 188.813,89.063 188.672 L 91.602 188.416 88.965 188.349 L 86.328 188.281 86.328 200.553 M95.020 188.572 C 96.899 188.644,99.976 188.644,101.855 188.572 C 103.735 188.500,102.197 188.442,98.438 188.442 C 94.678 188.442,93.140 188.500,95.020 188.572 M106.152 188.557 C 106.636 188.650,107.427 188.650,107.910 188.557 C 108.394 188.464,107.998 188.388,107.031 188.388 C 106.064 188.388,105.669 188.464,106.152 188.557 M109.412 188.965 C 109.700 189.341,109.985 189.722,110.046 189.811 C 110.107 189.901,110.156 189.593,110.156 189.128 C 110.156 188.607,109.912 188.281,109.522 188.281 C 108.980 188.281,108.964 188.380,109.412 188.965 M109.809 190.430 C 109.474 191.562,109.616 212.745,109.961 213.115 C 110.222 213.395,110.318 210.674,110.250 204.912 C 110.134 195.047,109.976 189.865,109.809 190.430 M217.383 197.933 C 228.200 198.209,237.411 198.216,237.245 197.949 C 237.145 197.788,231.668 197.694,225.075 197.740 C 218.481 197.786,215.020 197.873,217.383 197.933 M293.359 199.781 C 293.359 200.125,295.765 201.241,296.000 201.005 C 296.123 200.882,296.009 200.781,295.745 200.781 C 295.482 200.781,295.392 200.578,295.545 200.330 C 295.716 200.054,295.652 199.985,295.381 200.153 C 295.137 200.304,294.583 200.237,294.149 200.004 C 293.715 199.772,293.359 199.671,293.359 199.781 M277.327 204.395 C 278.285 205.415,279.120 206.250,279.183 206.250 C 279.476 206.250,279.166 205.899,277.441 204.281 L 275.586 202.539 277.327 204.395 M306.362 203.414 C 307.605 203.492,309.539 203.491,310.659 203.412 C 311.779 203.334,310.762 203.270,308.398 203.271 C 306.035 203.272,305.119 203.336,306.362 203.414 M284.076 209.502 C 284.449 209.797,284.624 210.181,284.467 210.355 C 284.309 210.529,284.396 210.548,284.660 210.396 C 284.924 210.244,285.510 210.318,285.963 210.560 C 286.415 210.803,286.855 210.932,286.939 210.848 C 287.023 210.763,286.261 210.305,285.245 209.830 C 284.230 209.354,283.703 209.207,284.076 209.502 M159.570 211.719 C 159.904 212.363,160.264 212.891,160.372 212.891 C 160.479 212.891,160.294 212.363,159.961 211.719 C 159.628 211.074,159.267 210.547,159.160 210.547 C 159.052 210.547,159.237 211.074,159.570 211.719 M319.922 212.500 C 319.137 212.751,319.099 212.815,319.727 212.824 C 320.156 212.831,320.859 212.685,321.289 212.500 C 322.284 212.072,321.257 212.072,319.922 212.500 M298.344 213.948 C 298.830 214.042,299.533 214.038,299.907 213.940 C 300.280 213.842,299.883 213.766,299.023 213.770 C 298.164 213.775,297.858 213.855,298.344 213.948 M303.433 214.352 C 304.784 214.429,306.894 214.428,308.121 214.351 C 309.348 214.273,308.242 214.211,305.664 214.212 C 303.086 214.212,302.082 214.276,303.433 214.352 M118.848 218.762 C 117.520 219.296,117.794 219.552,119.177 219.069 C 119.842 218.838,121.380 218.742,122.595 218.857 C 123.945 218.985,124.501 218.939,124.023 218.740 C 122.986 218.307,119.948 218.320,118.848 218.762 M140.723 218.639 C 141.313 218.729,142.280 218.729,142.871 218.639 C 143.462 218.550,142.979 218.476,141.797 218.476 C 140.615 218.476,140.132 218.550,140.723 218.639 M159.375 218.750 C 159.375 218.965,159.814 219.141,160.352 219.141 C 160.889 219.141,161.328 218.965,161.328 218.750 C 161.328 218.535,160.889 218.359,160.352 218.359 C 159.814 218.359,159.375 218.535,159.375 218.750 M177.973 218.821 C 178.082 218.997,178.506 219.141,178.915 219.141 C 179.583 219.141,179.671 219.507,179.787 222.754 L 179.916 226.367 179.997 222.603 L 180.078 218.839 178.927 218.670 C 178.294 218.577,177.865 218.645,177.973 218.821 M186.035 218.624 C 185.727 218.745,185.572 219.487,185.615 220.638 L 185.683 222.461 185.833 220.801 C 185.979 219.182,186.017 219.141,187.392 219.141 C 188.168 219.141,188.706 219.045,188.590 218.928 C 188.268 218.607,186.589 218.407,186.035 218.624 M217.358 218.868 C 217.252 219.146,217.219 221.826,217.286 224.823 L 217.407 230.273 217.492 224.521 L 217.578 218.770 218.848 219.017 C 219.546 219.152,220.246 219.456,220.404 219.690 C 220.580 219.952,220.693 219.853,220.697 219.434 C 220.700 219.058,220.571 218.738,220.410 218.724 C 220.249 218.709,219.540 218.622,218.835 218.530 C 218.015 218.423,217.482 218.546,217.358 218.868 M235.254 218.639 C 235.845 218.729,236.812 218.729,237.402 218.639 C 237.993 218.550,237.510 218.476,236.328 218.476 C 235.146 218.476,234.663 218.550,235.254 218.639 M261.523 218.750 C 261.391 218.965,261.546 219.141,261.868 219.141 C 262.190 219.141,262.563 218.965,262.695 218.750 C 262.828 218.535,262.673 218.359,262.351 218.359 C 262.029 218.359,261.656 218.535,261.523 218.750 M277.246 218.635 C 277.729 218.728,278.521 218.728,279.004 218.635 C 279.487 218.542,279.092 218.466,278.125 218.466 C 277.158 218.466,276.763 218.542,277.246 218.635 M158.738 222.656 C 158.738 224.912,158.803 225.835,158.882 224.707 C 158.961 223.579,158.961 221.733,158.882 220.605 C 158.803 219.478,158.738 220.400,158.738 222.656 M177.098 222.656 C 177.098 224.912,177.162 225.835,177.241 224.707 C 177.320 223.579,177.320 221.733,177.241 220.605 C 177.162 219.478,177.098 220.400,177.098 222.656 M199.902 219.040 C 201.460 219.114,204.009 219.114,205.566 219.040 C 207.124 218.966,205.850 218.905,202.734 218.905 C 199.619 218.905,198.345 218.966,199.902 219.040 M208.600 219.805 C 208.594 221.049,208.583 221.055,206.348 221.196 L 204.102 221.337 206.497 221.411 C 208.994 221.487,209.908 220.608,208.931 219.068 C 208.718 218.732,208.604 218.986,208.600 219.805 M254.297 218.872 C 254.297 218.939,254.868 219.511,255.566 220.142 L 256.836 221.289 255.689 220.020 C 254.619 218.836,254.297 218.570,254.297 218.872 M281.147 219.330 C 282.248 219.809,282.367 219.997,282.064 220.780 C 281.708 221.700,281.625 221.724,280.273 221.293 C 279.844 221.156,279.995 221.335,280.609 221.690 C 281.831 222.396,282.198 222.203,282.559 220.665 C 282.796 219.657,281.709 218.721,280.353 218.765 C 280.094 218.774,280.452 219.028,281.147 219.330 M145.313 219.249 C 145.313 219.323,145.884 219.803,146.582 220.314 C 147.368 220.889,147.640 220.983,147.298 220.561 C 146.778 219.921,145.313 218.952,145.313 219.249 M241.451 220.489 C 241.797 220.929,242.275 221.641,242.513 222.070 C 242.751 222.500,242.950 222.635,242.957 222.369 C 242.963 222.104,242.485 221.393,241.895 220.788 C 241.304 220.184,241.104 220.049,241.451 220.489 M120.801 220.972 C 121.177 221.071,121.792 221.071,122.168 220.972 C 122.544 220.874,122.236 220.794,121.484 220.794 C 120.732 220.794,120.425 220.874,120.801 220.972 M141.113 220.972 C 141.489 221.071,142.104 221.071,142.480 220.972 C 142.856 220.874,142.549 220.794,141.797 220.794 C 141.045 220.794,140.737 220.874,141.113 220.972 M197.186 221.157 C 197.599 221.546,201.563 221.834,201.563 221.475 C 201.563 221.303,200.516 221.104,199.237 221.031 C 197.958 220.958,197.035 221.015,197.186 221.157 M234.777 221.079 C 234.082 221.518,235.157 222.095,236.022 221.747 C 236.320 221.628,236.206 221.513,235.742 221.464 C 235.277 221.415,235.514 221.265,236.328 221.094 C 237.680 220.809,237.682 220.805,236.523 220.761 C 235.879 220.736,235.093 220.879,234.777 221.079 M277.441 220.972 C 277.817 221.071,278.433 221.071,278.809 220.972 C 279.185 220.874,278.877 220.794,278.125 220.794 C 277.373 220.794,277.065 220.874,277.441 220.972 M119.387 221.368 C 118.875 221.881,119.145 222.738,119.747 222.507 C 120.143 222.355,120.256 222.431,120.073 222.727 C 119.884 223.034,120.014 223.095,120.476 222.918 C 120.851 222.774,121.436 222.656,121.777 222.656 C 122.349 222.656,122.134 222.088,121.549 222.056 C 121.406 222.049,120.917 221.835,120.462 221.582 C 120.006 221.329,119.523 221.232,119.387 221.368 M135.535 221.897 C 135.299 222.338,135.163 222.873,135.234 223.085 C 135.305 223.298,135.565 222.936,135.812 222.283 C 136.325 220.923,136.171 220.708,135.535 221.897 M143.723 221.459 C 144.030 221.653,144.324 222.104,144.376 222.460 C 144.622 224.133,145.710 225.019,145.697 223.535 C 145.692 222.947,145.635 222.933,145.289 223.438 C 144.961 223.916,144.908 223.873,145.002 223.205 C 145.127 222.316,144.313 221.090,143.605 221.100 C 143.362 221.103,143.415 221.264,143.723 221.459 M238.915 221.875 C 239.371 222.412,239.841 223.115,239.959 223.438 C 240.142 223.939,240.177 223.935,240.204 223.408 C 240.220 223.069,239.751 222.366,239.160 221.845 L 238.086 220.898 238.915 221.875 M272.674 222.070 C 272.611 223.091,272.558 223.142,272.266 222.461 C 271.992 221.824,271.925 221.802,271.902 222.340 C 271.887 222.704,272.052 223.110,272.268 223.244 C 272.764 223.550,273.172 222.539,272.930 221.605 C 272.815 221.162,272.720 221.336,272.674 222.070 M275.924 221.675 C 275.649 222.393,276.407 223.113,277.267 222.949 C 278.086 222.792,277.996 222.210,277.056 221.585 C 276.268 221.062,276.156 221.071,275.924 221.675 M257.783 222.757 C 258.304 223.346,258.749 223.828,258.772 223.828 C 258.795 223.828,258.833 223.345,258.856 222.754 C 258.879 222.153,258.815 221.994,258.711 222.393 C 258.531 223.082,258.497 223.082,257.681 222.396 C 256.993 221.818,257.012 221.885,257.783 222.757 M188.402 224.414 C 188.404 225.703,188.477 226.183,188.564 225.481 C 188.651 224.779,188.649 223.725,188.560 223.138 C 188.471 222.551,188.400 223.125,188.402 224.414 M116.528 223.714 C 116.551 224.188,116.643 224.503,116.733 224.413 C 116.823 224.323,117.392 224.507,117.999 224.820 C 118.605 225.134,119.330 225.387,119.610 225.382 C 119.889 225.377,119.391 225.044,118.503 224.640 C 117.615 224.237,116.798 223.670,116.687 223.379 C 116.576 223.089,116.505 223.240,116.528 223.714 M137.989 224.414 C 137.993 225.273,138.073 225.579,138.167 225.093 C 138.260 224.607,138.257 223.904,138.159 223.531 C 138.061 223.157,137.985 223.555,137.989 224.414 M232.475 224.346 C 232.370 227.299,236.234 229.333,238.500 227.518 C 239.232 226.931,239.229 226.924,238.405 227.322 C 236.636 228.177,232.709 227.424,234.029 226.484 C 234.451 226.183,234.421 226.146,233.891 226.317 C 233.206 226.537,233.062 226.241,232.682 223.828 C 232.580 223.180,232.510 223.355,232.475 224.346 M124.074 224.000 C 125.463 224.604,125.787 225.021,126.194 226.724 L 126.483 227.930 126.523 226.825 C 126.569 225.552,124.707 223.428,123.565 223.453 C 123.106 223.463,123.288 223.658,124.074 224.000 M185.645 224.805 C 185.650 225.664,185.730 225.970,185.823 225.484 C 185.917 224.998,185.913 224.295,185.815 223.921 C 185.717 223.548,185.641 223.945,185.645 224.805 M255.796 224.663 C 256.727 225.678,256.950 226.144,256.577 226.292 C 256.237 226.428,256.217 226.512,256.520 226.532 C 257.543 226.599,257.318 225.838,255.942 224.574 L 254.492 223.242 255.796 224.663 M273.428 224.056 C 273.707 224.504,274.130 224.886,274.370 224.907 C 274.609 224.927,275.244 225.054,275.781 225.188 C 276.403 225.344,276.270 225.209,275.418 224.815 C 274.680 224.475,273.817 223.982,273.499 223.720 C 272.997 223.305,272.988 223.349,273.428 224.056 M134.736 225.098 C 134.471 225.962,134.566 226.432,135.005 226.432 C 135.303 226.432,135.547 226.286,135.547 226.107 C 135.547 225.928,135.361 225.781,135.133 225.781 C 134.906 225.781,134.828 225.605,134.961 225.391 C 135.094 225.176,135.104 225.000,134.984 225.000 C 134.864 225.000,134.752 225.044,134.736 225.098 M145.343 225.511 C 145.326 225.900,145.172 226.131,145.001 226.025 C 144.829 225.919,144.434 225.994,144.122 226.192 C 143.631 226.503,143.633 226.553,144.141 226.569 C 144.589 226.583,144.548 226.722,143.968 227.161 C 143.551 227.476,143.389 227.734,143.607 227.734 C 144.276 227.734,145.800 225.870,145.581 225.321 C 145.447 224.988,145.363 225.056,145.343 225.511 M122.146 226.033 C 122.403 226.137,122.504 226.504,122.373 226.847 C 122.213 227.262,122.286 227.377,122.590 227.189 C 122.842 227.034,123.047 227.117,123.047 227.375 C 123.047 227.711,122.358 227.784,120.605 227.633 C 118.839 227.481,118.430 227.525,119.127 227.793 C 120.805 228.436,123.240 228.056,123.256 227.148 C 123.270 226.346,122.760 225.774,122.070 225.818 C 121.855 225.832,121.890 225.928,122.146 226.033 M278.516 226.195 C 278.516 226.422,278.340 226.500,278.125 226.367 C 277.910 226.234,277.734 226.300,277.734 226.513 C 277.734 226.726,278.130 227.040,278.613 227.211 C 279.353 227.473,279.215 227.560,277.734 227.765 L 275.977 228.008 277.559 228.066 C 279.024 228.121,280.078 227.622,280.078 226.875 C 280.078 226.703,279.858 226.606,279.590 226.660 C 279.321 226.714,279.146 226.538,279.199 226.270 C 279.253 226.001,279.121 225.781,278.906 225.781 C 278.691 225.781,278.516 225.967,278.516 226.195 M139.358 227.246 C 140.002 227.862,140.711 228.110,141.721 228.076 L 143.164 228.027 141.518 227.759 C 140.613 227.611,139.549 227.238,139.155 226.929 C 138.761 226.620,138.852 226.763,139.358 227.246 M184.907 226.475 C 185.239 227.013,184.580 227.421,182.826 227.765 L 181.445 228.035 182.672 228.080 C 184.132 228.134,185.969 226.870,185.159 226.369 C 184.830 226.165,184.739 226.203,184.907 226.475 M116.257 227.797 C 115.916 229.503,116.187 229.585,116.695 227.929 C 116.926 227.178,116.977 226.563,116.809 226.563 C 116.641 226.563,116.393 227.118,116.257 227.797 M272.754 227.930 C 272.701 228.682,272.788 229.296,272.949 229.295 C 273.110 229.294,273.274 228.679,273.312 227.928 C 273.403 226.145,272.881 226.147,272.754 227.930 M259.375 228.711 C 260.104 229.463,260.788 230.078,260.895 230.078 C 261.003 230.078,260.494 229.463,259.766 228.711 C 259.037 227.959,258.353 227.344,258.245 227.344 C 258.138 227.344,258.646 227.959,259.375 228.711 M136.296 228.267 C 136.816 228.908,138.281 229.876,138.281 229.579 C 138.281 229.505,137.710 229.026,137.012 228.514 C 136.226 227.939,135.953 227.845,136.296 228.267 M164.593 228.025 L 167.662 228.159 167.501 229.258 C 167.368 230.162,167.464 230.323,168.045 230.171 C 168.433 230.070,168.750 229.821,168.750 229.619 C 168.750 229.416,168.574 229.359,168.359 229.492 C 168.145 229.625,167.969 229.386,167.969 228.962 C 167.969 228.537,168.188 228.101,168.457 227.993 C 168.726 227.885,167.275 227.818,165.234 227.844 L 161.523 227.892 164.593 228.025 M178.332 229.356 C 178.518 230.322,178.906 230.826,178.906 230.101 C 178.906 229.820,179.160 229.701,179.492 229.829 C 180.367 230.165,180.201 229.858,179.125 229.153 C 178.214 228.556,178.179 228.565,178.332 229.356 M139.143 230.136 C 139.421 230.313,140.615 230.446,141.797 230.432 C 144.392 230.402,143.987 230.196,140.901 229.977 C 139.638 229.887,138.861 229.957,139.143 230.136 M201.469 230.545 C 201.690 231.389,202.204 231.446,202.943 230.706 C 203.408 230.242,203.327 230.139,202.386 230.001 C 201.478 229.868,201.317 229.963,201.469 230.545 M236.328 230.078 L 233.789 230.334 236.133 230.395 C 237.422 230.429,238.740 230.286,239.063 230.078 C 239.385 229.870,239.473 229.727,239.258 229.761 C 239.043 229.795,237.725 229.937,236.328 230.078 M250.879 229.957 C 251.255 230.055,251.563 230.421,251.563 230.771 C 251.563 231.277,251.661 231.308,252.048 230.921 C 252.598 230.371,251.845 229.667,250.781 229.739 C 250.366 229.767,250.395 229.830,250.879 229.957 M120.020 230.358 C 120.610 230.447,121.577 230.447,122.168 230.358 C 122.759 230.268,122.275 230.195,121.094 230.195 C 119.912 230.195,119.429 230.268,120.020 230.358 M181.738 230.358 C 182.329 230.447,183.296 230.447,183.887 230.358 C 184.478 230.268,183.994 230.195,182.813 230.195 C 181.631 230.195,181.147 230.268,181.738 230.358 M276.660 230.358 C 277.251 230.447,278.218 230.447,278.809 230.358 C 279.399 230.268,278.916 230.195,277.734 230.195 C 276.553 230.195,276.069 230.268,276.660 230.358 M138.188 260.042 C 138.674 260.135,139.377 260.132,139.751 260.034 C 140.124 259.936,139.727 259.860,138.867 259.864 C 138.008 259.868,137.702 259.948,138.188 260.042 M144.816 260.048 C 145.509 260.134,146.739 260.135,147.550 260.051 C 148.360 259.966,147.793 259.896,146.289 259.894 C 144.785 259.892,144.122 259.961,144.816 260.048 M154.009 260.046 C 154.603 260.136,155.482 260.133,155.962 260.041 C 156.443 259.948,155.957 259.874,154.883 259.877 C 153.809 259.880,153.416 259.956,154.009 260.046 M247.759 260.046 C 248.353 260.136,249.232 260.133,249.712 260.041 C 250.193 259.948,249.707 259.874,248.633 259.877 C 247.559 259.880,247.166 259.956,247.759 260.046 M254.590 260.052 C 255.503 260.134,256.997 260.134,257.910 260.052 C 258.823 259.969,258.076 259.902,256.250 259.902 C 254.424 259.902,253.677 259.969,254.590 260.052 M262.798 260.042 C 263.283 260.135,263.987 260.132,264.360 260.034 C 264.733 259.936,264.336 259.860,263.477 259.864 C 262.617 259.868,262.312 259.948,262.798 260.042 M170.020 270.508 C 170.025 271.367,170.105 271.673,170.198 271.187 C 170.292 270.701,170.288 269.998,170.190 269.624 C 170.092 269.251,170.016 269.648,170.020 270.508 M241.888 285.547 C 241.888 286.299,241.968 286.606,242.066 286.230 C 242.164 285.854,242.164 285.239,242.066 284.863 C 241.968 284.487,241.888 284.795,241.888 285.547 " stroke="none" fill="#44474f" fill-rule="evenodd"></path></g></svg>